<svg width="175" height="27" viewBox="0 0 175 27" fill="none" xmlns="http://www.w3.org/2000/svg">
<path d="M3.01382 18.9621C1.96201 18.9612 0.993567 18.4135 0.484507 17.5317C-0.0245532 16.6498 0.00595637 15.5728 0.56419 14.7187L5.77276 6.75187C6.30774 5.88439 7.29189 5.36332 8.34318 5.39094C9.39447 5.41855 10.3473 5.9905 10.8319 6.88476C11.3165 7.77902 11.2565 8.85477 10.6751 9.69443L5.46965 17.6613C4.94019 18.4718 4.01189 18.9636 3.01382 18.9621Z" fill="#FB275D"/>
<path d="M11.888 18.9621C10.8379 18.9612 9.87105 18.4148 9.36282 17.5351C8.85459 16.6553 8.88505 15.5808 9.44237 14.7288L14.6409 6.78088C15.1675 5.90074 16.1551 5.3672 17.2143 5.39063C18.2734 5.41406 19.2342 5.99071 19.7178 6.89318C20.2014 7.79566 20.1301 8.87916 19.5321 9.71644L14.3336 17.6643C13.8062 18.4712 12.8822 18.9615 11.888 18.9621Z" fill="#FFCC00"/>
<path d="M20.5405 18.9785C22.1313 18.9785 23.4209 17.6912 23.4209 16.1031C23.4209 14.5151 22.1313 13.2278 20.5405 13.2278C18.9497 13.2278 17.6602 14.5151 17.6602 16.1031C17.6602 17.6912 18.9497 18.9785 20.5405 18.9785Z" fill="#00CA72"/>
<path d="M44.3958 6.07513C45.9747 6.07513 47.2272 6.55336 48.1533 7.50981C49.0946 8.46626 49.5652 9.79467 49.5652 11.495V18.9189H45.6938V12.0188C45.6938 11.199 45.4737 10.5689 45.0334 10.1287C44.6083 9.67321 44.0162 9.44549 43.2572 9.44549C42.4981 9.44549 41.8984 9.67321 41.4581 10.1287C41.033 10.5689 40.8205 11.199 40.8205 12.0188V18.9189H36.9491V12.0188C36.9491 11.199 36.729 10.5689 36.2887 10.1287C35.8636 9.67321 35.2715 9.44549 34.5124 9.44549C33.7534 9.44549 33.1537 9.67321 32.7134 10.1287C32.2883 10.5689 32.0758 11.199 32.0758 12.0188V18.9189H28.1816V6.21177H32.0758V7.80585C32.4705 7.27449 32.9867 6.85699 33.6243 6.55336C34.2619 6.23454 34.9831 6.07513 35.7877 6.07513C36.7442 6.07513 37.5943 6.28008 38.3383 6.68999C39.0973 7.0999 39.6894 7.6844 40.1145 8.44349C40.5548 7.74513 41.1545 7.17581 41.9136 6.73554C42.6727 6.29527 43.5001 6.07513 44.3958 6.07513Z" fill="black"/>
<path d="M57.3897 19.1011C56.1448 19.1011 55.0214 18.8354 54.0194 18.3041C53.0326 17.7727 52.2507 17.0136 51.6738 16.0268C51.1121 15.04 50.8312 13.8862 50.8312 12.5653C50.8312 11.2597 51.1197 10.1135 51.6966 9.12667C52.2735 8.12467 53.0629 7.35799 54.0649 6.82663C55.0669 6.29527 56.1904 6.02958 57.4353 6.02958C58.6802 6.02958 59.8036 6.29527 60.8056 6.82663C61.8076 7.35799 62.5971 8.12467 63.174 9.12667C63.7509 10.1135 64.0394 11.2597 64.0394 12.5653C64.0394 13.871 63.7433 15.0248 63.1512 16.0268C62.5743 17.0136 61.7773 17.7727 60.7601 18.3041C59.7581 18.8354 58.6346 19.1011 57.3897 19.1011ZM57.3897 15.7307C58.1336 15.7307 58.7637 15.4575 59.2799 14.9109C59.8112 14.3644 60.0769 13.5825 60.0769 12.5653C60.0769 11.5482 59.8188 10.7663 59.3026 10.2198C58.8016 9.67321 58.1792 9.39994 57.4353 9.39994C56.6762 9.39994 56.0461 9.67321 55.5451 10.2198C55.0441 10.7511 54.7936 11.533 54.7936 12.5653C54.7936 13.5825 55.0366 14.3644 55.5224 14.9109C56.0234 15.4575 56.6458 15.7307 57.3897 15.7307Z" fill="black"/>
<path d="M73.1648 6.07513C74.6526 6.07513 75.8368 6.56095 76.7173 7.53258C77.6131 8.48903 78.0609 9.80985 78.0609 11.495V18.9189H74.1896V12.0188C74.1896 11.1686 73.9694 10.5082 73.5292 10.0376C73.0889 9.56694 72.4968 9.33162 71.7529 9.33162C71.009 9.33162 70.4169 9.56694 69.9766 10.0376C69.5363 10.5082 69.3162 11.1686 69.3162 12.0188V18.9189H65.4221V6.21177H69.3162V7.89694C69.7109 7.33522 70.2423 6.89495 70.9103 6.57613C71.5783 6.24213 72.3298 6.07513 73.1648 6.07513Z" fill="black"/>
<path d="M79.3095 12.5426C79.3095 11.2369 79.5524 10.0907 80.0382 9.1039C80.5392 8.11708 81.2148 7.35799 82.065 6.82663C82.9152 6.29527 83.864 6.02958 84.9116 6.02958C85.7466 6.02958 86.5057 6.20417 87.1889 6.55336C87.8872 6.90254 88.4338 7.37317 88.8285 7.96526V2.06714H92.7226V18.9189H88.8285V17.0971C88.4641 17.7044 87.9404 18.1902 87.2572 18.5546C86.5892 18.9189 85.8073 19.1011 84.9116 19.1011C83.864 19.1011 82.9152 18.8354 82.065 18.3041C81.2148 17.7575 80.5392 16.9908 80.0382 16.004C79.5524 15.002 79.3095 13.8482 79.3095 12.5426ZM88.8285 12.5653C88.8285 11.5937 88.5552 10.827 88.0087 10.2653C87.4773 9.70358 86.8245 9.42271 86.0502 9.42271C85.2759 9.42271 84.6155 9.70358 84.069 10.2653C83.5376 10.8118 83.2719 11.5709 83.2719 12.5426C83.2719 13.5142 83.5376 14.2885 84.069 14.8654C84.6155 15.4271 85.2759 15.708 86.0502 15.708C86.8245 15.708 87.4773 15.4271 88.0087 14.8654C88.5552 14.3037 88.8285 13.537 88.8285 12.5653Z" fill="black"/>
<path d="M94.0824 12.5426C94.0824 11.2369 94.3253 10.0907 94.8111 9.1039C95.3121 8.11708 95.9877 7.35799 96.8379 6.82663C97.6881 6.29527 98.6369 6.02958 99.6845 6.02958C100.58 6.02958 101.362 6.21177 102.03 6.57613C102.713 6.94049 103.237 7.41872 103.601 8.01081V6.21177H107.495V18.9189H103.601V17.1199C103.222 17.712 102.69 18.1902 102.007 18.5546C101.339 18.9189 100.557 19.1011 99.6617 19.1011C98.6293 19.1011 97.6881 18.8354 96.8379 18.3041C95.9877 17.7575 95.3121 16.9908 94.8111 16.004C94.3253 15.002 94.0824 13.8482 94.0824 12.5426ZM103.601 12.5653C103.601 11.5937 103.328 10.827 102.782 10.2653C102.25 9.70358 101.597 9.42271 100.823 9.42271C100.049 9.42271 99.3884 9.70358 98.8419 10.2653C98.3105 10.8118 98.0448 11.5709 98.0448 12.5426C98.0448 13.5142 98.3105 14.2885 98.8419 14.8654C99.3884 15.4271 100.049 15.708 100.823 15.708C101.597 15.708 102.25 15.4271 102.782 14.8654C103.328 14.3037 103.601 13.537 103.601 12.5653Z" fill="black"/>
<path d="M122.61 6.21177L114.64 24.9537H110.449L113.364 18.4862L108.195 6.21177H112.544L115.482 14.1594L118.397 6.21177H122.61Z" fill="black"/>
<path d="M130.25 9.78561C130.639 8.9656 131.236 8.29664 132.042 7.77874C132.862 7.26084 133.825 7.00189 134.933 7.00189C136.012 7.00189 136.976 7.25364 137.825 7.75716C138.674 8.24629 139.335 8.95121 139.81 9.87192C140.299 10.7783 140.544 11.8356 140.544 13.0441C140.544 14.2525 140.299 15.3171 139.81 16.2378C139.335 17.1585 138.666 17.8706 137.803 18.3741C136.954 18.8777 135.998 19.1294 134.933 19.1294C133.811 19.1294 132.84 18.8777 132.02 18.3741C131.214 17.8562 130.625 17.1873 130.25 16.3673V18.9568H128.761V2.98815H130.25V9.78561ZM139.012 13.0441C139.012 12.0658 138.817 11.2242 138.429 10.5193C138.055 9.79999 137.537 9.25332 136.875 8.87928C136.214 8.50524 135.465 8.31822 134.631 8.31822C133.825 8.31822 133.085 8.51243 132.408 8.90086C131.747 9.28929 131.222 9.84315 130.833 10.5625C130.445 11.2818 130.25 12.1162 130.25 13.0657C130.25 14.0151 130.445 14.8495 130.833 15.5688C131.222 16.2882 131.747 16.842 132.408 17.2304C133.085 17.6189 133.825 17.8131 134.631 17.8131C135.465 17.8131 136.214 17.6261 136.875 17.252C137.537 16.8636 138.055 16.3097 138.429 15.5904C138.817 14.8567 139.012 14.0079 139.012 13.0441ZM144.834 2.98815V18.9568H143.323V2.98815H144.834ZM153.412 19.1294C152.304 19.1294 151.304 18.8849 150.412 18.3957C149.535 17.8922 148.837 17.1873 148.319 16.281C147.816 15.3602 147.564 14.2885 147.564 13.0657C147.564 11.8428 147.823 10.7783 148.341 9.87192C148.859 8.95121 149.564 8.24629 150.456 7.75716C151.347 7.25364 152.347 7.00189 153.455 7.00189C154.563 7.00189 155.563 7.25364 156.455 7.75716C157.361 8.24629 158.066 8.95121 158.569 9.87192C159.087 10.7783 159.346 11.8428 159.346 13.0657C159.346 14.2741 159.087 15.3387 158.569 16.2594C158.051 17.1801 157.339 17.8922 156.433 18.3957C155.527 18.8849 154.52 19.1294 153.412 19.1294ZM153.412 17.8131C154.189 17.8131 154.908 17.6405 155.57 17.2952C156.232 16.9355 156.764 16.4032 157.167 15.6983C157.584 14.979 157.792 14.1015 157.792 13.0657C157.792 12.0298 157.591 11.1595 157.188 10.4546C156.785 9.73526 156.253 9.20297 155.591 8.8577C154.93 8.49805 154.21 8.31822 153.433 8.31822C152.657 8.31822 151.937 8.49805 151.276 8.8577C150.614 9.20297 150.082 9.73526 149.679 10.4546C149.29 11.1595 149.096 12.0298 149.096 13.0657C149.096 14.1015 149.29 14.979 149.679 15.6983C150.082 16.4032 150.607 16.9355 151.254 17.2952C151.916 17.6405 152.635 17.8131 153.412 17.8131ZM167.041 7.00189C168.149 7.00189 169.113 7.26084 169.933 7.77874C170.753 8.29664 171.343 8.95121 171.703 9.74245V7.17452H173.213V19.2589C173.213 20.3379 172.976 21.2945 172.501 22.1289C172.041 22.9633 171.393 23.6035 170.559 24.0495C169.724 24.5098 168.775 24.74 167.71 24.74C166.2 24.74 164.941 24.3804 163.934 23.6611C162.941 22.9418 162.323 21.9635 162.078 20.7263H163.567C163.826 21.5463 164.315 22.2009 165.035 22.69C165.768 23.1791 166.66 23.4237 167.71 23.4237C168.473 23.4237 169.156 23.2583 169.76 22.9274C170.365 22.6109 170.839 22.1361 171.185 21.5031C171.53 20.8701 171.703 20.1221 171.703 19.2589V16.3457C171.328 17.1513 170.731 17.8203 169.911 18.3526C169.106 18.8705 168.149 19.1294 167.041 19.1294C165.962 19.1294 164.991 18.8777 164.128 18.3741C163.279 17.8706 162.61 17.1585 162.121 16.2378C161.647 15.3171 161.409 14.2525 161.409 13.0441C161.409 11.8356 161.647 10.7783 162.121 9.87192C162.61 8.95121 163.279 8.24629 164.128 7.75716C164.991 7.25364 165.962 7.00189 167.041 7.00189ZM171.703 13.0657C171.703 12.1162 171.508 11.2818 171.12 10.5625C170.731 9.84315 170.199 9.28929 169.523 8.90086C168.861 8.51243 168.128 8.31822 167.322 8.31822C166.488 8.31822 165.739 8.50524 165.078 8.87928C164.416 9.25332 163.891 9.79999 163.502 10.5193C163.128 11.2242 162.941 12.0658 162.941 13.0441C162.941 14.0079 163.128 14.8567 163.502 15.5904C163.891 16.3097 164.416 16.8636 165.078 17.252C165.739 17.6261 166.488 17.8131 167.322 17.8131C168.128 17.8131 168.861 17.6189 169.523 17.2304C170.199 16.842 170.731 16.2882 171.12 15.5688C171.508 14.8495 171.703 14.0151 171.703 13.0657Z" fill="black"/>
</svg>
