<svg width="158" height="26" viewBox="0 0 158 26" fill="none" xmlns="http://www.w3.org/2000/svg">
<g clip-path="url(#clip0_1098_10071)">
<path fill-rule="evenodd" clip-rule="evenodd" d="M155.501 11.7977C154.496 11.7977 153.599 11.2004 153.221 10.2745C152.833 9.34858 153.042 8.29326 153.749 7.58639C154.456 6.87952 155.521 6.67045 156.447 7.04877C157.373 7.4271 157.97 8.33308 157.97 9.32867C157.97 9.65721 157.91 9.9758 157.781 10.2745C157.661 10.5732 157.472 10.842 157.243 11.071C157.014 11.3099 156.746 11.4891 156.447 11.6086C156.148 11.738 155.82 11.7977 155.501 11.7977ZM155.501 7.11846C154.605 7.10851 153.789 7.63617 153.44 8.46251C153.082 9.28885 153.271 10.2446 153.898 10.8818C154.525 11.519 155.481 11.7081 156.317 11.3696C157.144 11.0311 157.681 10.2247 157.681 9.32867C157.681 9.03995 157.632 8.75123 157.522 8.49238C157.413 8.22357 157.243 7.97467 157.044 7.77555C156.845 7.56648 156.606 7.40718 156.337 7.29767C156.069 7.1782 155.79 7.11846 155.501 7.11846ZM156.158 10.6229L155.481 9.51783H155.043V10.6229H154.734V7.95476H155.611C155.71 7.95476 155.82 7.96471 155.919 8.00454C156.029 8.04436 156.118 8.09414 156.198 8.17379C156.278 8.24348 156.337 8.33308 156.387 8.43264C156.427 8.5322 156.457 8.63176 156.457 8.74127C156.457 8.83419 156.44 8.92048 156.407 9.00013C156.381 9.08641 156.337 9.16274 156.278 9.22911C156.225 9.29548 156.158 9.3519 156.079 9.39836C155.999 9.44482 155.916 9.47469 155.83 9.48796L156.527 10.6229H156.158ZM155.561 8.25343H155.023V9.22911H155.561C155.7 9.24902 155.85 9.2092 155.949 9.10964C156.059 9.02004 156.128 8.88066 156.128 8.74127C156.128 8.60189 156.059 8.46251 155.949 8.36295C155.85 8.27335 155.7 8.23352 155.561 8.25343ZM120.436 7.80542V10.4238C120.436 10.5632 120.466 10.9117 120.158 10.9117C119.839 10.9117 119.779 10.7922 119.272 9.73686C118.943 9.02999 118.306 8.02445 114.752 7.92489C113.925 7.96471 113.836 8.12401 113.836 8.86074V21.8432C113.836 23.0081 113.836 23.7747 115.259 23.8643C115.857 23.8842 116.255 23.9141 116.255 24.3422C116.255 24.7703 115.887 24.7703 115.658 24.7703C114.722 24.7703 113.238 24.6508 112.292 24.6508C111.815 24.6508 109.505 24.7703 108.967 24.7703C108.738 24.7703 108.37 24.7404 108.37 24.3422C108.37 23.9439 108.758 23.9141 109.356 23.8643C110.789 23.7747 110.789 23.0081 110.789 21.893V8.66163C110.789 8.02445 110.62 7.93485 110.212 7.92489C106.339 7.95476 105.672 9.01008 105.333 9.73686C104.826 10.7922 104.736 10.9117 104.457 10.9117C104.168 10.9117 104.168 10.5632 104.168 10.4238V7.80542C104.168 7.14833 104.168 6.91934 104.507 6.91934C104.597 6.91934 104.597 6.94921 105.363 6.97908C106.13 7.00895 107.583 7.03881 110.52 7.03881H114.085C117.022 7.03881 118.495 7.00895 119.242 6.97908C119.988 6.94921 120.008 6.91934 120.098 6.91934C120.436 6.91934 120.436 7.14833 120.436 7.80542ZM89.6628 20.6684C89.6628 21.0368 89.3442 22.8587 89.2546 23.9141C89.2347 24.4616 88.9459 24.7703 88.1196 24.7703C86.666 24.7703 84.6549 24.7404 83.0222 24.7105C81.3994 24.6807 80.0653 24.6607 79.8861 24.6607H79.5476C78.3827 24.6607 77.6659 24.6807 77.2179 24.7105C76.7599 24.7404 76.5508 24.7703 76.3318 24.7703C76.1028 24.7703 75.7345 24.7404 75.7345 24.3422C75.7345 23.9439 76.1626 23.9141 76.7599 23.8643C78.1836 23.7747 78.1836 23.0081 78.1836 21.8432V9.82646C78.1836 8.65167 78.1836 7.88507 76.7599 7.80542C76.1327 7.77555 75.7345 7.72577 75.7345 7.31758C75.7345 6.91934 76.1028 6.91934 76.302 6.91934C76.3617 6.92598 76.4214 6.93262 76.4812 6.93926C76.5409 6.94589 76.6006 6.95253 76.6604 6.95917C76.7201 6.96581 76.7798 6.96912 76.8396 6.96912C76.8993 6.96912 76.959 6.97244 77.0188 6.97908C77.636 7.00895 78.8606 7.03881 81.2899 7.03881H82.6439C85.5808 7.03881 87.0543 7.00895 87.801 6.97908C88.5377 6.94921 88.5676 6.91934 88.6572 6.91934C88.9957 6.91934 88.9957 7.14833 88.9957 7.80542V10.4338C88.9957 10.5732 89.0256 10.9117 88.707 10.9117C88.3984 10.9117 88.3386 10.8021 87.8309 9.74682C87.4824 9.00013 86.7955 7.92489 82.7534 7.92489C81.3297 7.92489 81.2202 8.11405 81.2202 9.53774V13.6694C81.2202 14.5854 81.2202 14.8144 82.8728 14.8144C86.0289 14.8144 86.2877 14.1871 86.7955 12.6738C86.9448 12.3055 87.0543 12.2457 87.2236 12.2457C87.3928 12.2457 87.5422 12.3353 87.5422 12.6539C87.5422 13.0422 87.343 15.9792 87.343 16.6064C87.343 16.8055 87.4227 17.8011 87.4227 18.0301C87.4227 18.1994 87.4227 18.5976 87.0842 18.5976C86.8552 18.5976 86.6859 18.4483 86.5466 17.9106C85.9492 15.7204 85.1527 15.6905 82.8131 15.6905C81.4491 15.6905 81.2202 15.6905 81.2202 16.5467V21.435C81.2202 23.466 81.8175 23.7747 84.2069 23.7747C85.4614 23.7747 87.2335 23.7747 88.478 21.3554C88.9957 20.3598 89.0355 20.2403 89.3043 20.2403C89.5632 20.2403 89.6528 20.4992 89.6628 20.6684ZM136.137 20.6684C136.137 21.0368 135.828 22.8587 135.739 23.9141C135.709 24.4616 135.43 24.7703 134.604 24.7703C133.15 24.7703 131.129 24.7404 129.506 24.7105C127.883 24.6807 126.539 24.6607 126.37 24.6607H126.032C124.867 24.6607 124.15 24.6807 123.692 24.7105C123.234 24.7404 123.035 24.7703 122.806 24.7703C122.587 24.7703 122.209 24.7404 122.209 24.3422C122.209 23.9439 122.637 23.9141 123.234 23.8643C124.658 23.7747 124.658 23.0081 124.658 21.8432V9.82646C124.658 8.65167 124.658 7.88507 123.234 7.80542C122.617 7.77555 122.209 7.72577 122.209 7.31758C122.209 6.91934 122.587 6.91934 122.786 6.91934C122.846 6.92598 122.905 6.93262 122.965 6.93926C123.018 6.94589 123.075 6.95253 123.134 6.95917C123.194 6.96581 123.254 6.96912 123.314 6.96912C123.373 6.96912 123.433 6.97244 123.493 6.97908C124.12 7.00895 125.345 7.03881 127.764 7.03881H129.128C132.065 7.03881 133.548 7.00895 134.285 6.97908C135.032 6.94921 135.052 6.91934 135.141 6.91934C135.48 6.91934 135.48 7.14833 135.48 7.80542V10.4338C135.48 10.5732 135.51 10.9117 135.201 10.9117C134.882 10.9117 134.833 10.8021 134.315 9.74682C133.966 9.00013 133.28 7.92489 129.247 7.92489C127.824 7.92489 127.704 8.11405 127.704 9.53774V13.6694C127.704 14.5854 127.704 14.8144 129.357 14.8144C132.523 14.8144 132.772 14.1871 133.289 12.6738C133.429 12.3055 133.548 12.2457 133.718 12.2457C133.887 12.2457 134.026 12.3353 134.026 12.6539C134.026 13.0422 133.827 15.9792 133.827 16.6064C133.827 16.8055 133.917 17.8011 133.917 18.0301C133.917 18.1994 133.917 18.5976 133.568 18.5976C133.349 18.5976 133.18 18.4483 133.031 17.9106C132.433 15.7204 131.637 15.6905 129.297 15.6905C127.933 15.6905 127.704 15.6905 127.704 16.5467V21.435C127.704 23.466 128.302 23.7747 130.701 23.7747C131.955 23.7747 133.718 23.7747 134.972 21.3554C135.48 20.3598 135.53 20.2403 135.798 20.2403C136.047 20.2403 136.137 20.4992 136.137 20.6684ZM102.974 19.2049C102.974 22.4306 100.584 25.1287 96.7215 25.1287C94.4515 25.1287 93.0179 24.5711 92.5002 24.1928C92.1816 23.9638 92.0621 23.3764 91.9825 22.6497C91.9559 22.4306 91.9327 22.2083 91.9128 21.9826C91.8929 21.7636 91.8796 21.5412 91.873 21.3156C91.8597 21.0965 91.8497 20.8742 91.8431 20.6485C91.8365 20.4295 91.8331 20.2071 91.8331 19.9815C91.8331 19.872 91.853 19.4638 92.2015 19.4638C92.4604 19.4638 92.5002 19.7525 92.5599 20.0213C93.1175 22.5501 95.1086 24.2924 97.1695 24.2924C98.3742 24.2924 100.664 23.4959 100.664 21.1463C100.664 18.8764 98.6927 17.7812 96.602 16.8155C94.2524 15.7701 91.9526 14.6451 91.9526 11.5588C91.9526 8.89061 93.9836 6.57089 97.6772 6.57089C99.3697 6.57089 101.082 7.02886 101.48 7.23793C101.829 7.43705 101.829 7.70586 101.829 10.2546C101.829 10.8917 101.829 11.1307 101.421 11.1307C101.132 11.1307 101.022 10.9515 100.724 10.0555C100.375 8.91052 99.8675 7.32754 97.4483 7.29767C95.1883 7.27776 94.2723 8.92048 94.2723 10.0555C94.2723 12.1163 95.9648 12.8431 98.2846 13.7989C99.9173 14.4958 102.964 15.9195 102.974 19.2049ZM39.4054 15.5411C39.4054 21.1762 34.6266 25.1287 29.7283 25.1287C24.6906 25.1287 20.0213 21.3454 20.0213 15.8C20.0213 10.5732 24.2227 6.57089 29.8179 6.57089C35.204 6.57089 39.4054 10.5433 39.4054 15.5411ZM36.0304 15.6606C36.0304 12.2059 33.9894 7.36736 29.4794 7.36736C25.955 7.36736 23.3864 11.0909 23.3864 15.1927C23.3864 19.872 26.1243 24.3222 29.9573 24.3222C33.9297 24.3222 36.0304 19.852 36.0304 15.6606ZM18.8963 0.736736V5.09742C18.8963 5.22684 18.8963 5.88393 18.4483 5.88393C17.9903 5.88393 17.831 5.39609 17.6817 5.05759C16.4471 2.31972 15.9195 1.4436 9.50788 1.4436C8.11405 1.4436 7.41714 1.52325 7.41714 3.45469V9.2092C7.41714 11.4294 7.52665 11.4692 8.07423 11.5588C8.69149 11.6384 11.1307 11.6384 11.748 11.6384C15.0732 11.6384 15.6706 10.7325 16.1982 8.59193C16.2779 8.26339 16.487 7.90498 16.8553 7.93484C17.2237 7.95476 17.3432 8.22357 17.3432 8.63176C17.3432 9.2092 17.2237 12.0068 17.2237 12.6241C17.2237 12.9924 17.2237 13.6894 17.3033 14.6352L17.4726 16.5766C17.4726 16.8553 17.4626 17.3233 16.9748 17.3531C16.5467 17.373 16.3874 16.9051 16.3177 16.696C16.2181 16.4073 15.9493 15.342 15.8697 15.133C15.2922 12.9128 12.6539 12.9128 11.6285 12.9128C10.4139 12.9128 8.52224 12.9128 8.08418 13.0323C7.40718 13.2115 7.40718 13.6794 7.40718 14.8442V21.1563C7.40718 22.5999 7.40718 23.5457 9.15942 23.6452C9.89616 23.6751 10.394 23.7249 10.394 24.2526C10.394 24.7703 9.92602 24.7703 9.65721 24.7703C8.50233 24.7703 6.62067 24.6309 5.45583 24.6309C4.86843 24.6309 1.96131 24.7703 1.29427 24.7703C1.00555 24.7703 0.55753 24.7404 0.55753 24.2526C0.55753 23.7548 1.04537 23.7249 1.7821 23.6552C3.53434 23.5457 3.53434 22.5999 3.53434 21.2359V4.20139C3.53434 2.50888 3.53434 1.40378 1.47347 1.27435C0.617265 1.19471 0 1.15488 0 0.577442C0 0 0.537618 0 0.816383 0C0.915942 0.0132745 1.01218 0.0232304 1.1051 0.0298677C1.20466 0.0431422 1.3009 0.0530981 1.39382 0.0597353C1.49338 0.0663726 1.58962 0.0696912 1.68255 0.0696912C1.7821 0.0763285 1.87834 0.0796471 1.97127 0.0796471C3.0465 0.119471 4.52993 0.159294 8.61185 0.159294H9.50788C13.779 0.159294 15.9294 0.119471 17.0047 0.0796471C17.1042 0.0796471 17.2038 0.0796471 17.3033 0.0796471C17.4029 0.0730099 17.5025 0.0663726 17.602 0.0597353C17.7016 0.0530981 17.8011 0.0464608 17.9007 0.0398236C18.0003 0.026549 18.0998 0.0132745 18.1994 0C18.8565 0 18.8963 0.209074 18.8963 0.736736ZM56.7685 24.4318C56.7685 24.7205 56.4798 24.7703 56.2807 24.7703H52.5273C52.0195 24.7703 51.9001 24.5114 51.5914 23.9141L48.1367 17.4527C47.5095 16.2181 47.3701 16.0987 46.0858 16.0987C45.6079 16.0987 45.5482 16.2779 45.5482 16.7558V21.8731C45.5482 23.0678 45.5482 23.8344 46.9719 23.9141C47.5991 23.9439 47.9974 24.0037 47.9974 24.4019C47.9974 24.8001 47.629 24.7703 47.4 24.7703C46.8624 24.7703 44.0946 24.6607 43.9851 24.6607C43.4973 24.6607 41.1975 24.7703 40.6798 24.7703C40.4508 24.7703 40.0824 24.7703 40.0824 24.372C40.0824 23.9738 40.5105 23.9439 41.1079 23.9141C42.5017 23.8045 42.5017 23.0578 42.5017 21.8631V9.7966C42.5017 8.63176 42.5017 7.86515 41.1079 7.77555C40.4807 7.74568 40.0824 7.72577 40.0824 7.32754C40.0824 6.91934 40.2019 6.91934 41.1377 6.91934C41.4265 6.91934 42.8203 7.03881 43.1588 7.03881C43.9254 7.03881 47.7186 6.91934 48.5748 6.91934C53.6125 6.91934 54.0406 10.394 54.0406 11.3895C54.0406 14.7248 51.1036 15.4117 50.1379 15.6108C50.5062 15.8299 50.8447 15.9991 51.5018 17.1938L54.2696 22.0921C54.837 23.0877 55.2253 23.7946 56.0318 23.9141C56.6291 24.0037 56.7685 24.1331 56.7685 24.4318ZM50.8248 11.7878C50.8248 10.7623 50.4266 7.71582 46.8922 7.71582C45.5781 7.71582 45.5482 8.40277 45.5482 9.50788V14.2967C45.5482 15.2922 45.5482 15.352 46.9719 15.352C47.9974 15.352 50.8248 15.352 50.8248 11.7878ZM74.6294 24.4318C74.6294 24.7205 74.3506 24.7703 74.1515 24.7703H70.3981C69.8804 24.7703 69.7709 24.5114 69.4523 23.9141L66.0076 17.4527C65.3803 16.2181 65.241 16.0987 63.9566 16.0987C63.4788 16.0987 63.419 16.2779 63.419 16.7558V21.8731C63.419 23.0678 63.419 23.8344 64.8427 23.9141C65.4699 23.9439 65.8682 24.0037 65.8682 24.4019C65.8682 24.8001 65.4998 24.7703 65.2708 24.7703C64.7332 24.7703 61.9655 24.6607 61.856 24.6607C61.3681 24.6607 59.0583 24.7703 58.5506 24.7703C58.3216 24.7703 57.9532 24.7703 57.9532 24.372C57.9532 23.9738 58.3813 23.9439 58.9787 23.9141C60.3725 23.8045 60.3725 23.0578 60.3725 21.8631V9.7966C60.3725 8.63176 60.3725 7.86515 58.9787 7.77555C58.3515 7.74568 57.9532 7.72577 57.9532 7.32754C57.9532 6.91934 58.0628 6.91934 59.0086 6.91934C59.2873 6.91934 60.6812 7.03881 61.0296 7.03881C61.7962 7.03881 65.5795 6.91934 66.4357 6.91934C71.4733 6.91934 71.9014 10.394 71.9014 11.3895C71.9014 14.7248 68.9744 15.4117 67.9987 15.6108C68.3771 15.8299 68.7156 15.9991 69.3726 17.1938L72.1304 22.0921C72.6979 23.0877 73.0862 23.7946 73.8926 23.9141C74.49 24.0037 74.6294 24.1331 74.6294 24.4318ZM68.6956 11.7878C68.6956 10.7623 68.2974 7.71582 64.7631 7.71582C63.4489 7.71582 63.419 8.40277 63.419 9.50788V14.2967C63.419 15.2922 63.419 15.352 64.8427 15.352C65.8682 15.352 68.6857 15.352 68.6956 11.7878ZM154.416 24.4318C154.416 24.7205 154.137 24.7703 153.938 24.7703H150.185C149.667 24.7703 149.557 24.5114 149.249 23.9141L145.784 17.4427C145.157 16.2181 145.018 16.0987 143.733 16.0987C143.255 16.0987 143.196 16.2679 143.196 16.7558V21.8631C143.196 23.0578 143.196 23.8344 144.639 23.9141C145.256 23.9439 145.665 24.0037 145.665 24.4019C145.665 24.8001 145.286 24.7703 145.067 24.7703C144.52 24.7703 141.762 24.6607 141.642 24.6607C141.165 24.6607 138.855 24.7703 138.337 24.7703C138.118 24.7703 137.74 24.7703 137.74 24.372C137.74 23.9738 138.168 23.9439 138.765 23.9141C140.159 23.8045 140.159 23.0578 140.159 21.8631V9.7966C140.159 8.63176 140.159 7.86515 138.765 7.77555C138.148 7.74568 137.74 7.72577 137.74 7.32754C137.74 6.91934 137.859 6.91934 138.795 6.91934C139.084 6.91934 140.478 7.03881 140.816 7.03881C141.593 7.03881 145.376 6.91934 146.232 6.91934C151.27 6.91934 151.698 10.394 151.698 11.3895C151.698 14.7248 148.761 15.4117 147.795 15.6108C148.164 15.8299 148.512 15.9991 149.169 17.1938L151.927 22.0921C152.494 23.0877 152.883 23.7946 153.689 23.9141C154.286 24.0037 154.416 24.1331 154.416 24.4318ZM148.482 11.7878C148.482 10.7623 148.084 7.71582 144.55 7.71582C143.235 7.71582 143.206 8.40277 143.206 9.50788V14.2967C143.206 15.2922 143.206 15.352 144.629 15.352C145.655 15.352 148.472 15.352 148.482 11.7878Z" fill="black"/>
</g>
<defs>
<clipPath id="clip0_1098_10071">
<rect width="158" height="25.1884" fill="white"/>
</clipPath>
</defs>
</svg>
