<svg width="34" height="34" viewBox="0 0 34 34" fill="none" xmlns="http://www.w3.org/2000/svg">
<rect x="0.299609" y="0.300006" width="32.6" height="32.6" rx="4.3" fill="white"/>
<rect x="0.299609" y="0.300006" width="32.6" height="32.6" rx="4.3" stroke="#C4C4C4" stroke-width="0.6"/>
<g clip-path="url(#clip0_1158_526)">
<g clip-path="url(#paint0_angular_1158_526_clip_path)" data-figma-skip-parse="true"><g transform="matrix(0.00443583 -0.00708057 0.00788375 0.00493912 13.4441 18.8922)"><foreignObject x="-1821.35" y="-1821.35" width="3642.7" height="3642.7"><div xmlns="http://www.w3.org/1999/xhtml" style="background:conic-gradient(from 90deg,rgba(255, 199, 69, 1) 0deg,rgba(255, 81, 217, 1) 16.506deg,rgba(255, 132, 228, 1) 38.5477deg,rgba(255, 107, 16, 1) 72.1015deg,rgba(255, 107, 16, 1) 294.208deg,rgba(255, 214, 51, 1) 329.305deg,rgba(255, 214, 51, 1) 357.933deg,rgba(255, 199, 69, 1) 360deg);height:100%;width:100%;opacity:1"></div></foreignObject></g></g><path d="M11.2009 8.78396C11.7047 8.69751 12.2207 8.70987 12.7195 8.82106C13.2185 8.93233 13.6911 9.14026 14.1091 9.43239C14.527 9.7245 14.8826 10.0958 15.156 10.5242L16.9265 13.2967L18.697 10.5242C18.9705 10.0957 19.3268 9.72453 19.7449 9.43239C20.1628 9.14038 20.6347 8.9323 21.1335 8.82106C21.6323 8.70987 22.1483 8.69751 22.6521 8.78396C23.1559 8.87048 23.6379 9.05486 24.0701 9.32595C24.5022 9.59709 24.877 9.94957 25.1716 10.364C25.4662 10.7786 25.6756 11.2472 25.7878 11.742C25.9 12.2366 25.9131 12.7483 25.8259 13.2478C25.7386 13.7475 25.5525 14.2255 25.279 14.6541L20.2458 22.5388C19.8947 23.0896 19.4084 23.543 18.8328 23.8572C18.2568 24.1715 17.6093 24.3363 16.9519 24.3357C16.9434 24.3357 16.935 24.3348 16.9265 24.3347C16.918 24.3348 16.9096 24.3357 16.9011 24.3357C16.2437 24.3363 15.5962 24.1715 15.0203 23.8572C14.4446 23.543 13.9583 23.0896 13.6072 22.5388L8.57396 14.6541C8.30048 14.2255 8.11534 13.7475 8.02807 13.2478C7.94082 12.7483 7.95303 12.2366 8.06518 11.742C8.17739 11.2472 8.38676 10.7786 8.68139 10.364C8.976 9.94957 9.35081 9.59709 9.78295 9.32595C10.2151 9.05485 10.6971 8.87048 11.2009 8.78396Z" data-figma-gradient-fill="{&#34;type&#34;:&#34;GRADIENT_ANGULAR&#34;,&#34;stops&#34;:[{&#34;color&#34;:{&#34;r&#34;:1.0,&#34;g&#34;:0.31764706969261169,&#34;b&#34;:0.85098040103912354,&#34;a&#34;:1.0},&#34;position&#34;:0.045850053429603577},{&#34;color&#34;:{&#34;r&#34;:1.0,&#34;g&#34;:0.51764708757400513,&#34;b&#34;:0.89411765336990356,&#34;a&#34;:1.0},&#34;position&#34;:0.10707706212997437},{&#34;color&#34;:{&#34;r&#34;:1.0,&#34;g&#34;:0.41960784792900085,&#34;b&#34;:0.062745101749897003,&#34;a&#34;:1.0},&#34;position&#34;:0.20028196275234222},{&#34;color&#34;:{&#34;r&#34;:1.0,&#34;g&#34;:0.41960784792900085,&#34;b&#34;:0.062745101749897003,&#34;a&#34;:1.0},&#34;position&#34;:0.81724429130554199},{&#34;color&#34;:{&#34;r&#34;:1.0,&#34;g&#34;:0.83921569585800171,&#34;b&#34;:0.20000000298023224,&#34;a&#34;:1.0},&#34;position&#34;:0.91473716497421265},{&#34;color&#34;:{&#34;r&#34;:1.0,&#34;g&#34;:0.83921569585800171,&#34;b&#34;:0.20000000298023224,&#34;a&#34;:1.0},&#34;position&#34;:0.99425768852233887}],&#34;stopsVar&#34;:[{&#34;color&#34;:{&#34;r&#34;:1.0,&#34;g&#34;:0.31764706969261169,&#34;b&#34;:0.85098040103912354,&#34;a&#34;:1.0},&#34;position&#34;:0.045850053429603577},{&#34;color&#34;:{&#34;r&#34;:1.0,&#34;g&#34;:0.51764708757400513,&#34;b&#34;:0.89411765336990356,&#34;a&#34;:1.0},&#34;position&#34;:0.10707706212997437},{&#34;color&#34;:{&#34;r&#34;:1.0,&#34;g&#34;:0.41960784792900085,&#34;b&#34;:0.062745101749897003,&#34;a&#34;:1.0},&#34;position&#34;:0.20028196275234222},{&#34;color&#34;:{&#34;r&#34;:1.0,&#34;g&#34;:0.41960784792900085,&#34;b&#34;:0.062745101749897003,&#34;a&#34;:1.0},&#34;position&#34;:0.81724429130554199},{&#34;color&#34;:{&#34;r&#34;:1.0,&#34;g&#34;:0.83921569585800171,&#34;b&#34;:0.20000000298023224,&#34;a&#34;:1.0},&#34;position&#34;:0.91473716497421265},{&#34;color&#34;:{&#34;r&#34;:1.0,&#34;g&#34;:0.83921569585800171,&#34;b&#34;:0.20000000298023224,&#34;a&#34;:1.0},&#34;position&#34;:0.99425768852233887}],&#34;transform&#34;:{&#34;m00&#34;:8.8716640472412109,&#34;m01&#34;:15.767510414123535,&#34;m02&#34;:1.1245491504669189,&#34;m10&#34;:-14.161148071289062,&#34;m11&#34;:9.8782329559326172,&#34;m12&#34;:21.033687591552734},&#34;opacity&#34;:1.0,&#34;blendMode&#34;:&#34;NORMAL&#34;,&#34;visible&#34;:true}"/>
<g clip-path="url(#paint1_angular_1158_526_clip_path)" data-figma-skip-parse="true"><g transform="matrix(0.00789084 0.00405216 -0.00377192 0.0073455 13.359 18.8497)"><foreignObject x="-1801.67" y="-1801.67" width="3603.34" height="3603.34"><div xmlns="http://www.w3.org/1999/xhtml" style="background:conic-gradient(from 90deg,rgba(255, 148, 185, 1) 0deg,rgba(255, 134, 130, 1) 23.4636deg,rgba(255, 107, 16, 1) 52.986deg,rgba(255, 81, 218, 1) 264.196deg,rgba(255, 164, 250, 1) 333.03deg,rgba(255, 148, 185, 1) 360deg);height:100%;width:100%;opacity:1"></div></foreignObject></g></g><path d="M16.9529 24.3359C16.2558 24.3352 15.5718 24.1491 14.972 23.797C14.3722 23.445 13.8786 22.9398 13.5427 22.3343C13.2069 21.7287 13.041 21.0449 13.0624 20.3541C13.0838 19.6633 13.2917 18.9909 13.6644 18.4069L18.6975 10.524C18.971 10.0955 19.3269 9.72459 19.745 9.43246C20.1631 9.14032 20.6351 8.93269 21.1341 8.82142C21.6331 8.71016 22.1493 8.69743 22.6532 8.78397C23.1572 8.87051 23.639 9.05462 24.0712 9.32579C24.5034 9.59696 24.8775 9.94988 25.1722 10.3644C25.4668 10.7789 25.6762 11.2469 25.7884 11.7417C25.9006 12.2364 25.9135 12.7483 25.8262 13.248C25.7389 13.7476 25.5532 14.2254 25.2797 14.6539L20.2467 22.5385C19.8954 23.0895 19.4091 23.5433 18.8331 23.8576C18.2572 24.1719 17.6103 24.3365 16.9529 24.3359Z" data-figma-gradient-fill="{&#34;type&#34;:&#34;GRADIENT_ANGULAR&#34;,&#34;stops&#34;:[{&#34;color&#34;:{&#34;r&#34;:1.0,&#34;g&#34;:0.52877062559127808,&#34;b&#34;:0.51088690757751465,&#34;a&#34;:1.0},&#34;position&#34;:0.065176777541637421},{&#34;color&#34;:{&#34;r&#34;:1.0,&#34;g&#34;:0.41960784792900085,&#34;b&#34;:0.062745101749897003,&#34;a&#34;:1.0},&#34;position&#34;:0.14718337357044220},{&#34;color&#34;:{&#34;r&#34;:1.0,&#34;g&#34;:0.31764706969261169,&#34;b&#34;:0.85490196943283081,&#34;a&#34;:1.0},&#34;position&#34;:0.73387789726257324},{&#34;color&#34;:{&#34;r&#34;:1.0,&#34;g&#34;:0.64313727617263794,&#34;b&#34;:0.98039215803146362,&#34;a&#34;:1.0},&#34;position&#34;:0.92508310079574585}],&#34;stopsVar&#34;:[{&#34;color&#34;:{&#34;r&#34;:1.0,&#34;g&#34;:0.52877062559127808,&#34;b&#34;:0.51088690757751465,&#34;a&#34;:1.0},&#34;position&#34;:0.065176777541637421},{&#34;color&#34;:{&#34;r&#34;:1.0,&#34;g&#34;:0.41960784792900085,&#34;b&#34;:0.062745101749897003,&#34;a&#34;:1.0},&#34;position&#34;:0.14718337357044220},{&#34;color&#34;:{&#34;r&#34;:1.0,&#34;g&#34;:0.31764706969261169,&#34;b&#34;:0.85490196943283081,&#34;a&#34;:1.0},&#34;position&#34;:0.73387789726257324},{&#34;color&#34;:{&#34;r&#34;:1.0,&#34;g&#34;:0.64313727617263794,&#34;b&#34;:0.98039215803146362,&#34;a&#34;:1.0},&#34;position&#34;:0.92508310079574585}],&#34;transform&#34;:{&#34;m00&#34;:15.781677246093750,&#34;m01&#34;:-7.5438361167907715,&#34;m02&#34;:9.2400941848754883,&#34;m10&#34;:8.1043119430541992,&#34;m11&#34;:14.691001892089844,&#34;m12&#34;:7.4520606994628906},&#34;opacity&#34;:1.0,&#34;blendMode&#34;:&#34;NORMAL&#34;,&#34;visible&#34;:true}"/>
</g>
<defs>
<clipPath id="paint0_angular_1158_526_clip_path"><path d="M11.2009 8.78396C11.7047 8.69751 12.2207 8.70987 12.7195 8.82106C13.2185 8.93233 13.6911 9.14026 14.1091 9.43239C14.527 9.7245 14.8826 10.0958 15.156 10.5242L16.9265 13.2967L18.697 10.5242C18.9705 10.0957 19.3268 9.72453 19.7449 9.43239C20.1628 9.14038 20.6347 8.9323 21.1335 8.82106C21.6323 8.70987 22.1483 8.69751 22.6521 8.78396C23.1559 8.87048 23.6379 9.05486 24.0701 9.32595C24.5022 9.59709 24.877 9.94957 25.1716 10.364C25.4662 10.7786 25.6756 11.2472 25.7878 11.742C25.9 12.2366 25.9131 12.7483 25.8259 13.2478C25.7386 13.7475 25.5525 14.2255 25.279 14.6541L20.2458 22.5388C19.8947 23.0896 19.4084 23.543 18.8328 23.8572C18.2568 24.1715 17.6093 24.3363 16.9519 24.3357C16.9434 24.3357 16.935 24.3348 16.9265 24.3347C16.918 24.3348 16.9096 24.3357 16.9011 24.3357C16.2437 24.3363 15.5962 24.1715 15.0203 23.8572C14.4446 23.543 13.9583 23.0896 13.6072 22.5388L8.57396 14.6541C8.30048 14.2255 8.11534 13.7475 8.02807 13.2478C7.94082 12.7483 7.95303 12.2366 8.06518 11.742C8.17739 11.2472 8.38676 10.7786 8.68139 10.364C8.976 9.94957 9.35081 9.59709 9.78295 9.32595C10.2151 9.05485 10.6971 8.87048 11.2009 8.78396Z"/></clipPath><clipPath id="paint1_angular_1158_526_clip_path"><path d="M16.9529 24.3359C16.2558 24.3352 15.5718 24.1491 14.972 23.797C14.3722 23.445 13.8786 22.9398 13.5427 22.3343C13.2069 21.7287 13.041 21.0449 13.0624 20.3541C13.0838 19.6633 13.2917 18.9909 13.6644 18.4069L18.6975 10.524C18.971 10.0955 19.3269 9.72459 19.745 9.43246C20.1631 9.14032 20.6351 8.93269 21.1341 8.82142C21.6331 8.71016 22.1493 8.69743 22.6532 8.78397C23.1572 8.87051 23.639 9.05462 24.0712 9.32579C24.5034 9.59696 24.8775 9.94988 25.1722 10.3644C25.4668 10.7789 25.6762 11.2469 25.7884 11.7417C25.9006 12.2364 25.9135 12.7483 25.8262 13.248C25.7389 13.7476 25.5532 14.2254 25.2797 14.6539L20.2467 22.5385C19.8954 23.0895 19.4091 23.5433 18.8331 23.8576C18.2572 24.1719 17.6103 24.3365 16.9529 24.3359Z"/></clipPath><clipPath id="clip0_1158_526">
<rect width="17.9126" height="15.6087" fill="white" transform="translate(7.9707 8.72729)"/>
</clipPath>
</defs>
</svg>
