<svg width="34" height="34" viewBox="0 0 34 34" fill="none" xmlns="http://www.w3.org/2000/svg">
<rect x="0.299609" y="0.299976" width="32.6" height="32.6" rx="4.3" fill="white"/>
<rect x="0.299609" y="0.299976" width="32.6" height="32.6" rx="4.3" stroke="#C4C4C4" stroke-width="0.6"/>
<path d="M0.599609 4.59998C0.599609 2.39084 2.39047 0.599976 4.59961 0.599976H28.5996C30.8087 0.599976 32.5996 2.39084 32.5996 4.59998V28.6C32.5996 30.8091 30.8087 32.6 28.5996 32.6H4.59961C2.39047 32.6 0.599609 30.8091 0.599609 28.6V4.59998Z" fill="white"/>
<g clip-path="url(#paint0_angular_1156_514_clip_path)" data-figma-skip-parse="true"><g transform="matrix(0.00940629 0.00174382 -0.00303511 0.00960847 27.6701 5.90202)"><foreignObject x="-3944.42" y="-3944.42" width="7888.84" height="7888.84"><div xmlns="http://www.w3.org/1999/xhtml" style="background:conic-gradient(from 90deg,rgba(250, 210, 57, 1) 0deg,rgba(255, 214, 51, 1) 4.65807deg,rgba(148, 80, 253, 1) 86.0171deg,rgba(72, 0, 255, 1) 116.533deg,rgba(3, 250, 250, 1) 142.413deg,rgba(97, 97, 255, 1) 215.412deg,rgba(250, 210, 57, 1) 360deg);height:100%;width:100%;opacity:1"></div></foreignObject></g></g><path d="M15.7272 25.6921C16.2516 25.9995 16.851 26.105 17.4204 25.9784C17.9898 25.8518 18.4933 25.5052 18.8409 25.0049C19.1886 24.5046 19.3444 23.8989 19.3534 23.2991C19.3534 23.1032 19.3534 22.9073 19.3534 22.7144C19.3474 22.2654 19.3324 21.8193 19.3025 21.3793C19.1166 19.6463 18.3255 17.9375 17.0908 16.6566C15.8621 15.3667 14.2078 14.4957 12.4906 14.2214C11.9272 14.1521 11.3578 14.0978 10.7854 14.0647C10.5936 14.0526 10.3988 14.0436 10.204 14.0345C9.60461 14.0104 8.99325 14.14 8.48079 14.4716C7.96833 14.8001 7.59971 15.2973 7.45287 15.867C7.30602 16.4366 7.38694 17.0514 7.67463 17.5909C8.67259 19.7307 11.8013 18.8989 13.084 20.5203C14.3666 22.1418 14.0669 24.8543 15.7302 25.6981L15.7272 25.6921Z" data-figma-gradient-fill="{&#34;type&#34;:&#34;GRADIENT_ANGULAR&#34;,&#34;stops&#34;:[{&#34;color&#34;:{&#34;r&#34;:1.0,&#34;g&#34;:0.83921569585800171,&#34;b&#34;:0.20000000298023224,&#34;a&#34;:1.0},&#34;position&#34;:0.012939095497131348},{&#34;color&#34;:{&#34;r&#34;:0.58039218187332153,&#34;g&#34;:0.31372550129890442,&#34;b&#34;:0.99215686321258545,&#34;a&#34;:1.0},&#34;position&#34;:0.23893648386001587},{&#34;color&#34;:{&#34;r&#34;:0.28333333134651184,&#34;g&#34;:0.0,&#34;b&#34;:1.0,&#34;a&#34;:1.0},&#34;position&#34;:0.32370311021804810},{&#34;color&#34;:{&#34;r&#34;:0.011764706112444401,&#34;g&#34;:0.98039215803146362,&#34;b&#34;:0.98039215803146362,&#34;a&#34;:1.0},&#34;position&#34;:0.39559286832809448},{&#34;color&#34;:{&#34;r&#34;:0.38039216399192810,&#34;g&#34;:0.38039216399192810,&#34;b&#34;:1.0,&#34;a&#34;:1.0},&#34;position&#34;:0.59836751222610474}],&#34;stopsVar&#34;:[{&#34;color&#34;:{&#34;r&#34;:1.0,&#34;g&#34;:0.83921569585800171,&#34;b&#34;:0.20000000298023224,&#34;a&#34;:1.0},&#34;position&#34;:0.012939095497131348},{&#34;color&#34;:{&#34;r&#34;:0.58039218187332153,&#34;g&#34;:0.31372550129890442,&#34;b&#34;:0.99215686321258545,&#34;a&#34;:1.0},&#34;position&#34;:0.23893648386001587},{&#34;color&#34;:{&#34;r&#34;:0.28333333134651184,&#34;g&#34;:0.0,&#34;b&#34;:1.0,&#34;a&#34;:1.0},&#34;position&#34;:0.32370311021804810},{&#34;color&#34;:{&#34;r&#34;:0.011764706112444401,&#34;g&#34;:0.98039215803146362,&#34;b&#34;:0.98039215803146362,&#34;a&#34;:1.0},&#34;position&#34;:0.39559286832809448},{&#34;color&#34;:{&#34;r&#34;:0.38039216399192810,&#34;g&#34;:0.38039216399192810,&#34;b&#34;:1.0,&#34;a&#34;:1.0},&#34;position&#34;:0.59836751222610474}],&#34;transform&#34;:{&#34;m00&#34;:18.812578201293945,&#34;m01&#34;:-6.0702161788940430,&#34;m02&#34;:21.298906326293945,&#34;m10&#34;:3.4876320362091064,&#34;m11&#34;:19.216943740844727,&#34;m12&#34;:-5.4502649307250977},&#34;opacity&#34;:1.0,&#34;blendMode&#34;:&#34;NORMAL&#34;,&#34;visible&#34;:true}"/>
<g clip-path="url(#paint1_angular_1156_514_clip_path)" data-figma-skip-parse="true"><g transform="matrix(0.0138785 0.0152913 -0.0135655 0.0123965 6.90911 25.7414)"><foreignObject x="-2499.58" y="-2499.58" width="4999.17" height="4999.17"><div xmlns="http://www.w3.org/1999/xhtml" style="background:conic-gradient(from 90deg,rgba(115, 196, 240, 1) 0deg,rgba(3, 250, 250, 1) 13.7418deg,rgba(97, 97, 255, 1) 178.791deg,rgba(255, 214, 51, 1) 252.021deg,rgba(255, 107, 16, 1) 274.968deg,rgba(255, 129, 227, 1) 297.134deg,rgba(255, 129, 227, 1) 342.947deg,rgba(115, 196, 240, 1) 360deg);height:100%;width:100%;opacity:1"></div></foreignObject></g></g><path d="M18.0504 7.26987C17.526 6.96246 16.9266 6.85698 16.3572 6.98356C15.7878 7.11014 15.2843 7.45673 14.9367 7.95703C14.589 8.45733 14.4332 9.06311 14.4242 9.66287C14.4242 9.85877 14.4242 10.0547 14.4242 10.2476C14.4302 10.6966 14.4452 11.1427 14.4752 11.5827C14.661 13.3156 15.4521 15.0245 16.6868 16.3054C17.9156 17.5953 19.5698 18.4663 21.287 18.7406C21.8504 18.8099 22.4198 18.8641 22.9922 18.8973C23.184 18.9093 23.3788 18.9184 23.5736 18.9274C24.173 18.9515 24.7844 18.8219 25.2968 18.4904C25.8093 18.1619 26.1779 17.6646 26.3247 17.095C26.4716 16.5254 26.3907 15.9106 26.103 15.3711C25.105 13.2313 21.9763 14.0631 20.6936 12.4416C19.411 10.8202 19.7107 8.10772 18.0474 7.26385L18.0504 7.26987Z" data-figma-gradient-fill="{&#34;type&#34;:&#34;GRADIENT_ANGULAR&#34;,&#34;stops&#34;:[{&#34;color&#34;:{&#34;r&#34;:0.011764706112444401,&#34;g&#34;:0.98039215803146362,&#34;b&#34;:0.98039215803146362,&#34;a&#34;:1.0},&#34;position&#34;:0.038171753287315369},{&#34;color&#34;:{&#34;r&#34;:0.38039216399192810,&#34;g&#34;:0.38039216399192810,&#34;b&#34;:1.0,&#34;a&#34;:1.0},&#34;position&#34;:0.49664038419723511},{&#34;color&#34;:{&#34;r&#34;:1.0,&#34;g&#34;:0.83921569585800171,&#34;b&#34;:0.20000000298023224,&#34;a&#34;:1.0},&#34;position&#34;:0.70005834102630615},{&#34;color&#34;:{&#34;r&#34;:1.0,&#34;g&#34;:0.41960784792900085,&#34;b&#34;:0.062745101749897003,&#34;a&#34;:1.0},&#34;position&#34;:0.76379954814910889},{&#34;color&#34;:{&#34;r&#34;:1.0,&#34;g&#34;:0.50588238239288330,&#34;b&#34;:0.89294117689132690,&#34;a&#34;:1.0},&#34;position&#34;:0.82537221908569336},{&#34;color&#34;:{&#34;r&#34;:1.0,&#34;g&#34;:0.50588238239288330,&#34;b&#34;:0.89294117689132690,&#34;a&#34;:1.0},&#34;position&#34;:0.95263051986694336}],&#34;stopsVar&#34;:[{&#34;color&#34;:{&#34;r&#34;:0.011764706112444401,&#34;g&#34;:0.98039215803146362,&#34;b&#34;:0.98039215803146362,&#34;a&#34;:1.0},&#34;position&#34;:0.038171753287315369},{&#34;color&#34;:{&#34;r&#34;:0.38039216399192810,&#34;g&#34;:0.38039216399192810,&#34;b&#34;:1.0,&#34;a&#34;:1.0},&#34;position&#34;:0.49664038419723511},{&#34;color&#34;:{&#34;r&#34;:1.0,&#34;g&#34;:0.83921569585800171,&#34;b&#34;:0.20000000298023224,&#34;a&#34;:1.0},&#34;position&#34;:0.70005834102630615},{&#34;color&#34;:{&#34;r&#34;:1.0,&#34;g&#34;:0.41960784792900085,&#34;b&#34;:0.062745101749897003,&#34;a&#34;:1.0},&#34;position&#34;:0.76379954814910889},{&#34;color&#34;:{&#34;r&#34;:1.0,&#34;g&#34;:0.50588238239288330,&#34;b&#34;:0.89294117689132690,&#34;a&#34;:1.0},&#34;position&#34;:0.82537221908569336},{&#34;color&#34;:{&#34;r&#34;:1.0,&#34;g&#34;:0.50588238239288330,&#34;b&#34;:0.89294117689132690,&#34;a&#34;:1.0},&#34;position&#34;:0.95263051986694336}],&#34;transform&#34;:{&#34;m00&#34;:27.757049560546875,&#34;m01&#34;:-27.130952835083008,&#34;m02&#34;:6.5960659980773926,&#34;m10&#34;:30.582519531250,&#34;m11&#34;:24.793016433715820,&#34;m12&#34;:-1.9464008808135986},&#34;opacity&#34;:1.0,&#34;blendMode&#34;:&#34;NORMAL&#34;,&#34;visible&#34;:true}"/>
<g clip-path="url(#paint2_angular_1156_514_clip_path)" data-figma-skip-parse="true"><g transform="matrix(-0.00409587 -0.00925235 0.00864608 -0.00380145 6.59886 7.17675)"><foreignObject x="-4257.62" y="-4257.62" width="8515.25" height="8515.25"><div xmlns="http://www.w3.org/1999/xhtml" style="background:conic-gradient(from 90deg,rgba(255, 197, 45, 1) 0deg,rgba(255, 107, 16, 1) 68.4941deg,rgba(255, 130, 227, 1) 87.2686deg,rgba(148, 80, 253, 1) 158.253deg,rgba(0, 116, 253, 1) 203.18deg,rgba(148, 80, 253, 1) 251.211deg,rgba(255, 214, 51, 1) 347.36deg,rgba(255, 197, 45, 1) 360deg);height:100%;width:100%;opacity:1"></div></foreignObject></g></g><path d="M26.143 17.6333C26.4487 17.1059 26.5536 16.5031 26.4277 15.9305C26.3018 15.3578 25.9572 14.8515 25.4597 14.5019C24.9622 14.1523 24.3599 13.9956 23.7635 13.9865C23.5687 13.9865 23.3739 13.9865 23.1821 13.9865C22.7356 13.9926 22.292 14.0076 21.8545 14.0378C20.1313 14.2246 18.4321 15.0203 17.1584 16.262C15.8758 17.4977 15.0097 19.1613 14.7369 20.8882C14.668 21.4549 14.6141 22.0275 14.5811 22.6031C14.5691 22.796 14.5601 22.9919 14.5511 23.1878C14.5272 23.7906 14.656 24.4054 14.9857 24.9208C15.3123 25.4361 15.8068 25.8068 16.3732 25.9545C16.9396 26.1022 17.551 26.0208 18.0874 25.7315C20.2152 24.7279 19.3881 21.5814 21.0004 20.2915C22.6127 19.0016 25.3039 19.306 26.143 17.6333Z" data-figma-gradient-fill="{&#34;type&#34;:&#34;GRADIENT_ANGULAR&#34;,&#34;stops&#34;:[{&#34;color&#34;:{&#34;r&#34;:1.0,&#34;g&#34;:0.41960784792900085,&#34;b&#34;:0.062745101749897003,&#34;a&#34;:1.0},&#34;position&#34;:0.19026148319244385},{&#34;color&#34;:{&#34;r&#34;:1.0,&#34;g&#34;:0.51010364294052124,&#34;b&#34;:0.89385569095611572,&#34;a&#34;:1.0},&#34;position&#34;:0.24241268634796143},{&#34;color&#34;:{&#34;r&#34;:0.58039218187332153,&#34;g&#34;:0.31372550129890442,&#34;b&#34;:0.99215686321258545,&#34;a&#34;:1.0},&#34;position&#34;:0.43959093093872070},{&#34;color&#34;:{&#34;r&#34;:0.0,&#34;g&#34;:0.45490196347236633,&#34;b&#34;:0.99215686321258545,&#34;a&#34;:1.0},&#34;position&#34;:0.56439012289047241},{&#34;color&#34;:{&#34;r&#34;:0.58039218187332153,&#34;g&#34;:0.31372550129890442,&#34;b&#34;:0.99215686321258545,&#34;a&#34;:1.0},&#34;position&#34;:0.69780862331390381},{&#34;color&#34;:{&#34;r&#34;:1.0,&#34;g&#34;:0.83921569585800171,&#34;b&#34;:0.20000000298023224,&#34;a&#34;:1.0},&#34;position&#34;:0.96488827466964722}],&#34;stopsVar&#34;:[{&#34;color&#34;:{&#34;r&#34;:1.0,&#34;g&#34;:0.41960784792900085,&#34;b&#34;:0.062745101749897003,&#34;a&#34;:1.0},&#34;position&#34;:0.19026148319244385},{&#34;color&#34;:{&#34;r&#34;:1.0,&#34;g&#34;:0.51010364294052124,&#34;b&#34;:0.89385569095611572,&#34;a&#34;:1.0},&#34;position&#34;:0.24241268634796143},{&#34;color&#34;:{&#34;r&#34;:0.58039218187332153,&#34;g&#34;:0.31372550129890442,&#34;b&#34;:0.99215686321258545,&#34;a&#34;:1.0},&#34;position&#34;:0.43959093093872070},{&#34;color&#34;:{&#34;r&#34;:0.0,&#34;g&#34;:0.45490196347236633,&#34;b&#34;:0.99215686321258545,&#34;a&#34;:1.0},&#34;position&#34;:0.56439012289047241},{&#34;color&#34;:{&#34;r&#34;:0.58039218187332153,&#34;g&#34;:0.31372550129890442,&#34;b&#34;:0.99215686321258545,&#34;a&#34;:1.0},&#34;position&#34;:0.69780862331390381},{&#34;color&#34;:{&#34;r&#34;:1.0,&#34;g&#34;:0.83921569585800171,&#34;b&#34;:0.20000000298023224,&#34;a&#34;:1.0},&#34;position&#34;:0.96488827466964722}],&#34;transform&#34;:{&#34;m00&#34;:-8.1917448043823242,&#34;m01&#34;:17.292150497436523,&#34;m02&#34;:2.0486583709716797,&#34;m10&#34;:-18.504695892333984,&#34;m11&#34;:-7.6028976440429688,&#34;m12&#34;:20.230543136596680},&#34;opacity&#34;:1.0,&#34;blendMode&#34;:&#34;NORMAL&#34;,&#34;visible&#34;:true}"/>
<g clip-path="url(#paint3_angular_1156_514_clip_path)" data-figma-skip-parse="true"><g transform="matrix(-0.00391837 -0.0043116 0.0049853 -0.00354846 16.8481 16.6906)"><foreignObject x="-5603.75" y="-5603.75" width="11207.5" height="11207.5"><div xmlns="http://www.w3.org/1999/xhtml" style="background:conic-gradient(from 90deg,rgba(20, 203, 138, 1) 0deg,rgba(4, 204, 88, 1) 22.5512deg,rgba(255, 214, 51, 1) 58.2341deg,rgba(255, 214, 51, 1) 78.0887deg,rgba(160, 144, 172, 1) 142.439deg,rgba(97, 97, 255, 1) 180.672deg,rgba(255, 129, 227, 1) 246.749deg,rgba(3, 250, 250, 1) 267.686deg,rgba(57, 201, 255, 1) 306.698deg,rgba(20, 203, 138, 1) 360deg);height:100%;width:100%;opacity:1"></div></foreignObject></g></g><path d="M7.67945 15.3394C7.37377 15.8669 7.30725 16.4548 7.43312 17.0275C7.55899 17.6001 7.90362 18.1064 8.4011 18.456C8.89858 18.8056 9.50095 18.9623 10.0973 18.9714C10.2921 18.9714 10.4869 18.9714 10.6787 18.9714C11.1252 18.9654 11.5688 18.9503 12.0063 18.9202C13.7295 18.7333 15.4287 17.9376 16.7024 16.6959C17.9851 15.4603 18.8512 13.7966 19.1239 12.0697C19.1928 11.5031 19.2467 10.9304 19.2797 10.3548C19.2917 10.1619 19.3007 9.96602 19.3097 9.77012C19.3336 9.16735 19.2048 8.55252 18.8751 8.03715C18.5485 7.52179 18.054 7.15108 17.4876 7.0034C16.9212 6.85573 16.318 6.91059 15.7815 7.19992C13.6538 8.20353 14.4727 11.3765 12.8604 12.6664C11.2481 13.9563 8.51858 13.6668 7.67945 15.3394Z" data-figma-gradient-fill="{&#34;type&#34;:&#34;GRADIENT_ANGULAR&#34;,&#34;stops&#34;:[{&#34;color&#34;:{&#34;r&#34;:0.019287083297967911,&#34;g&#34;:0.80359828472137451,&#34;b&#34;:0.34845396876335144,&#34;a&#34;:1.0},&#34;position&#34;:0.062642157077789307},{&#34;color&#34;:{&#34;r&#34;:1.0,&#34;g&#34;:0.83921569585800171,&#34;b&#34;:0.20000000298023224,&#34;a&#34;:1.0},&#34;position&#34;:0.16176138818264008},{&#34;color&#34;:{&#34;r&#34;:1.0,&#34;g&#34;:0.83921569585800171,&#34;b&#34;:0.20000000298023224,&#34;a&#34;:1.0},&#34;position&#34;:0.21691308915615082},{&#34;color&#34;:{&#34;r&#34;:0.63010036945343018,&#34;g&#34;:0.56530267000198364,&#34;b&#34;:0.67759191989898682,&#34;a&#34;:1.0},&#34;position&#34;:0.39566385746002197},{&#34;color&#34;:{&#34;r&#34;:0.38039216399192810,&#34;g&#34;:0.38039216399192810,&#34;b&#34;:1.0,&#34;a&#34;:1.0},&#34;position&#34;:0.50186586380004883},{&#34;color&#34;:{&#34;r&#34;:1.0,&#34;g&#34;:0.50588238239288330,&#34;b&#34;:0.89294117689132690,&#34;a&#34;:1.0},&#34;position&#34;:0.68541431427001953},{&#34;color&#34;:{&#34;r&#34;:0.011764706112444401,&#34;g&#34;:0.98039215803146362,&#34;b&#34;:0.98039215803146362,&#34;a&#34;:1.0},&#34;position&#34;:0.74357092380523682},{&#34;color&#34;:{&#34;r&#34;:0.22616812586784363,&#34;g&#34;:0.79014730453491211,&#34;b&#34;:1.0,&#34;a&#34;:1.0},&#34;position&#34;:0.85193920135498047}],&#34;stopsVar&#34;:[{&#34;color&#34;:{&#34;r&#34;:0.019287083297967911,&#34;g&#34;:0.80359828472137451,&#34;b&#34;:0.34845396876335144,&#34;a&#34;:1.0},&#34;position&#34;:0.062642157077789307},{&#34;color&#34;:{&#34;r&#34;:1.0,&#34;g&#34;:0.83921569585800171,&#34;b&#34;:0.20000000298023224,&#34;a&#34;:1.0},&#34;position&#34;:0.16176138818264008},{&#34;color&#34;:{&#34;r&#34;:1.0,&#34;g&#34;:0.83921569585800171,&#34;b&#34;:0.20000000298023224,&#34;a&#34;:1.0},&#34;position&#34;:0.21691308915615082},{&#34;color&#34;:{&#34;r&#34;:0.63010036945343018,&#34;g&#34;:0.56530267000198364,&#34;b&#34;:0.67759191989898682,&#34;a&#34;:1.0},&#34;position&#34;:0.39566385746002197},{&#34;color&#34;:{&#34;r&#34;:0.38039216399192810,&#34;g&#34;:0.38039216399192810,&#34;b&#34;:1.0,&#34;a&#34;:1.0},&#34;position&#34;:0.50186586380004883},{&#34;color&#34;:{&#34;r&#34;:1.0,&#34;g&#34;:0.50588238239288330,&#34;b&#34;:0.89294117689132690,&#34;a&#34;:1.0},&#34;position&#34;:0.68541431427001953},{&#34;color&#34;:{&#34;r&#34;:0.011764706112444401,&#34;g&#34;:0.98039215803146362,&#34;b&#34;:0.98039215803146362,&#34;a&#34;:1.0},&#34;position&#34;:0.74357092380523682},{&#34;color&#34;:{&#34;r&#34;:0.22616812586784363,&#34;g&#34;:0.79014730453491211,&#34;b&#34;:1.0,&#34;a&#34;:1.0},&#34;position&#34;:0.85193920135498047}],&#34;transform&#34;:{&#34;m00&#34;:-7.8367376327514648,&#34;m01&#34;:9.9706058502197266,&#34;m02&#34;:15.781167030334473,&#34;m10&#34;:-8.6231975555419922,&#34;m11&#34;:-7.0969114303588867,&#34;m12&#34;:24.550636291503906},&#34;opacity&#34;:1.0,&#34;blendMode&#34;:&#34;NORMAL&#34;,&#34;visible&#34;:true}"/>
<g clip-path="url(#paint4_angular_1156_514_clip_path)" data-figma-skip-parse="true"><g transform="matrix(0.00940629 0.00174382 -0.00303511 0.00960847 27.6701 5.90202)"><foreignObject x="-3944.42" y="-3944.42" width="7888.84" height="7888.84"><div xmlns="http://www.w3.org/1999/xhtml" style="background:conic-gradient(from 90deg,rgba(250, 210, 57, 1) 0deg,rgba(255, 214, 51, 1) 4.65807deg,rgba(148, 80, 253, 1) 86.0171deg,rgba(72, 0, 255, 1) 116.533deg,rgba(3, 250, 250, 1) 142.413deg,rgba(97, 97, 255, 1) 215.412deg,rgba(250, 210, 57, 1) 360deg);height:100%;width:100%;opacity:1"></div></foreignObject></g></g><path d="M15.6802 25.6921C16.2016 25.9995 16.7976 26.105 17.3638 25.9784C17.93 25.8518 18.4307 25.5052 18.7763 25.0049C19.122 24.5046 19.277 23.8989 19.2859 23.2991C19.2859 23.1032 19.2859 22.9073 19.2859 22.7144C19.2799 22.2654 19.2651 21.8193 19.2353 21.3793C19.0505 19.6463 18.2638 17.9375 17.036 16.6566C15.8142 15.3667 14.1693 14.4957 12.4618 14.2214C11.9016 14.1521 11.3354 14.0978 10.7662 14.0647C10.5755 14.0526 10.3818 14.0436 10.1881 14.0345C9.59208 14.0104 8.98417 14.14 8.47459 14.4716C7.96502 14.8001 7.59889 15.2973 7.45287 15.867C7.30685 16.4366 7.3869 17.0514 7.67298 17.5909C8.66531 19.7307 11.7764 18.8989 13.0518 20.5203C14.3272 22.1418 14.0292 24.8543 15.6831 25.6981L15.6802 25.6921Z" data-figma-gradient-fill="{&#34;type&#34;:&#34;GRADIENT_ANGULAR&#34;,&#34;stops&#34;:[{&#34;color&#34;:{&#34;r&#34;:1.0,&#34;g&#34;:0.83921569585800171,&#34;b&#34;:0.20000000298023224,&#34;a&#34;:1.0},&#34;position&#34;:0.012939095497131348},{&#34;color&#34;:{&#34;r&#34;:0.58039218187332153,&#34;g&#34;:0.31372550129890442,&#34;b&#34;:0.99215686321258545,&#34;a&#34;:1.0},&#34;position&#34;:0.23893648386001587},{&#34;color&#34;:{&#34;r&#34;:0.28333333134651184,&#34;g&#34;:0.0,&#34;b&#34;:1.0,&#34;a&#34;:1.0},&#34;position&#34;:0.32370311021804810},{&#34;color&#34;:{&#34;r&#34;:0.011764706112444401,&#34;g&#34;:0.98039215803146362,&#34;b&#34;:0.98039215803146362,&#34;a&#34;:1.0},&#34;position&#34;:0.39559286832809448},{&#34;color&#34;:{&#34;r&#34;:0.38039216399192810,&#34;g&#34;:0.38039216399192810,&#34;b&#34;:1.0,&#34;a&#34;:1.0},&#34;position&#34;:0.59836751222610474}],&#34;stopsVar&#34;:[{&#34;color&#34;:{&#34;r&#34;:1.0,&#34;g&#34;:0.83921569585800171,&#34;b&#34;:0.20000000298023224,&#34;a&#34;:1.0},&#34;position&#34;:0.012939095497131348},{&#34;color&#34;:{&#34;r&#34;:0.58039218187332153,&#34;g&#34;:0.31372550129890442,&#34;b&#34;:0.99215686321258545,&#34;a&#34;:1.0},&#34;position&#34;:0.23893648386001587},{&#34;color&#34;:{&#34;r&#34;:0.28333333134651184,&#34;g&#34;:0.0,&#34;b&#34;:1.0,&#34;a&#34;:1.0},&#34;position&#34;:0.32370311021804810},{&#34;color&#34;:{&#34;r&#34;:0.011764706112444401,&#34;g&#34;:0.98039215803146362,&#34;b&#34;:0.98039215803146362,&#34;a&#34;:1.0},&#34;position&#34;:0.39559286832809448},{&#34;color&#34;:{&#34;r&#34;:0.38039216399192810,&#34;g&#34;:0.38039216399192810,&#34;b&#34;:1.0,&#34;a&#34;:1.0},&#34;position&#34;:0.59836751222610474}],&#34;transform&#34;:{&#34;m00&#34;:18.812578201293945,&#34;m01&#34;:-6.0702161788940430,&#34;m02&#34;:21.298906326293945,&#34;m10&#34;:3.4876320362091064,&#34;m11&#34;:19.216943740844727,&#34;m12&#34;:-5.4502649307250977},&#34;opacity&#34;:1.0,&#34;blendMode&#34;:&#34;NORMAL&#34;,&#34;visible&#34;:true}"/>
<g clip-path="url(#paint5_angular_1156_514_clip_path)" data-figma-skip-parse="true"><g transform="matrix(0.0138785 0.0152913 -0.0135655 0.0123965 6.90911 25.7414)"><foreignObject x="-2499.58" y="-2499.58" width="4999.17" height="4999.17"><div xmlns="http://www.w3.org/1999/xhtml" style="background:conic-gradient(from 90deg,rgba(115, 196, 240, 1) 0deg,rgba(3, 250, 250, 1) 13.7418deg,rgba(97, 97, 255, 1) 178.791deg,rgba(255, 214, 51, 1) 252.021deg,rgba(255, 107, 16, 1) 274.968deg,rgba(255, 129, 227, 1) 297.134deg,rgba(255, 129, 227, 1) 342.947deg,rgba(115, 196, 240, 1) 360deg);height:100%;width:100%;opacity:1"></div></foreignObject></g></g><path d="M17.9903 7.26987C17.4688 6.96246 16.8728 6.85698 16.3066 6.98356C15.7405 7.11014 15.2398 7.45673 14.8941 7.95703C14.5485 8.45733 14.3935 9.06311 14.3846 9.66287C14.3846 9.85877 14.3846 10.0547 14.3846 10.2476C14.3905 10.6966 14.4054 11.1427 14.4352 11.5827C14.62 13.3156 15.4067 15.0245 16.6344 16.3054C17.8562 17.5953 19.5012 18.4663 21.2087 18.7406C21.7689 18.8099 22.3351 18.8641 22.9043 18.8973C23.095 18.9093 23.2887 18.9184 23.4824 18.9274C24.0784 18.9515 24.6863 18.8219 25.1959 18.4904C25.7055 18.1619 26.072 17.6646 26.218 17.095C26.364 16.5254 26.2836 15.9106 25.9975 15.3711C25.0052 13.2313 21.8941 14.0631 20.6187 12.4416C19.3432 10.8202 19.6412 8.10772 17.9873 7.26385L17.9903 7.26987Z" data-figma-gradient-fill="{&#34;type&#34;:&#34;GRADIENT_ANGULAR&#34;,&#34;stops&#34;:[{&#34;color&#34;:{&#34;r&#34;:0.011764706112444401,&#34;g&#34;:0.98039215803146362,&#34;b&#34;:0.98039215803146362,&#34;a&#34;:1.0},&#34;position&#34;:0.038171753287315369},{&#34;color&#34;:{&#34;r&#34;:0.38039216399192810,&#34;g&#34;:0.38039216399192810,&#34;b&#34;:1.0,&#34;a&#34;:1.0},&#34;position&#34;:0.49664038419723511},{&#34;color&#34;:{&#34;r&#34;:1.0,&#34;g&#34;:0.83921569585800171,&#34;b&#34;:0.20000000298023224,&#34;a&#34;:1.0},&#34;position&#34;:0.70005834102630615},{&#34;color&#34;:{&#34;r&#34;:1.0,&#34;g&#34;:0.41960784792900085,&#34;b&#34;:0.062745101749897003,&#34;a&#34;:1.0},&#34;position&#34;:0.76379954814910889},{&#34;color&#34;:{&#34;r&#34;:1.0,&#34;g&#34;:0.50588238239288330,&#34;b&#34;:0.89294117689132690,&#34;a&#34;:1.0},&#34;position&#34;:0.82537221908569336},{&#34;color&#34;:{&#34;r&#34;:1.0,&#34;g&#34;:0.50588238239288330,&#34;b&#34;:0.89294117689132690,&#34;a&#34;:1.0},&#34;position&#34;:0.95263051986694336}],&#34;stopsVar&#34;:[{&#34;color&#34;:{&#34;r&#34;:0.011764706112444401,&#34;g&#34;:0.98039215803146362,&#34;b&#34;:0.98039215803146362,&#34;a&#34;:1.0},&#34;position&#34;:0.038171753287315369},{&#34;color&#34;:{&#34;r&#34;:0.38039216399192810,&#34;g&#34;:0.38039216399192810,&#34;b&#34;:1.0,&#34;a&#34;:1.0},&#34;position&#34;:0.49664038419723511},{&#34;color&#34;:{&#34;r&#34;:1.0,&#34;g&#34;:0.83921569585800171,&#34;b&#34;:0.20000000298023224,&#34;a&#34;:1.0},&#34;position&#34;:0.70005834102630615},{&#34;color&#34;:{&#34;r&#34;:1.0,&#34;g&#34;:0.41960784792900085,&#34;b&#34;:0.062745101749897003,&#34;a&#34;:1.0},&#34;position&#34;:0.76379954814910889},{&#34;color&#34;:{&#34;r&#34;:1.0,&#34;g&#34;:0.50588238239288330,&#34;b&#34;:0.89294117689132690,&#34;a&#34;:1.0},&#34;position&#34;:0.82537221908569336},{&#34;color&#34;:{&#34;r&#34;:1.0,&#34;g&#34;:0.50588238239288330,&#34;b&#34;:0.89294117689132690,&#34;a&#34;:1.0},&#34;position&#34;:0.95263051986694336}],&#34;transform&#34;:{&#34;m00&#34;:27.757049560546875,&#34;m01&#34;:-27.130952835083008,&#34;m02&#34;:6.5960659980773926,&#34;m10&#34;:30.582519531250,&#34;m11&#34;:24.793016433715820,&#34;m12&#34;:-1.9464008808135986},&#34;opacity&#34;:1.0,&#34;blendMode&#34;:&#34;NORMAL&#34;,&#34;visible&#34;:true}"/>
<g clip-path="url(#paint6_angular_1156_514_clip_path)" data-figma-skip-parse="true"><g transform="matrix(-0.00409587 -0.00925235 0.00864608 -0.00380145 6.59886 7.17675)"><foreignObject x="-4257.62" y="-4257.62" width="8515.25" height="8515.25"><div xmlns="http://www.w3.org/1999/xhtml" style="background:conic-gradient(from 90deg,rgba(255, 197, 45, 1) 0deg,rgba(255, 107, 16, 1) 68.4941deg,rgba(255, 130, 227, 1) 87.2686deg,rgba(148, 80, 253, 1) 158.253deg,rgba(0, 116, 253, 1) 203.18deg,rgba(148, 80, 253, 1) 251.211deg,rgba(255, 214, 51, 1) 347.36deg,rgba(255, 197, 45, 1) 360deg);height:100%;width:100%;opacity:1"></div></foreignObject></g></g><path d="M26.0369 17.6333C26.3408 17.1059 26.4451 16.5031 26.32 15.9305C26.1948 15.3578 25.8521 14.8515 25.3575 14.5019C24.8628 14.1523 24.2638 13.9956 23.6708 13.9865C23.4771 13.9865 23.2834 13.9865 23.0927 13.9865C22.6487 13.9926 22.2076 14.0076 21.7726 14.0378C20.0591 14.2246 18.3694 15.0203 17.103 16.262C15.8275 17.4977 14.9663 19.1613 14.6951 20.8882C14.6266 21.4549 14.573 22.0275 14.5402 22.6031C14.5283 22.796 14.5193 22.9919 14.5104 23.1878C14.4865 23.7906 14.6147 24.4054 14.9425 24.9208C15.2673 25.4361 15.759 25.8068 16.3222 25.9545C16.8854 26.1022 17.4933 26.0208 18.0267 25.7315C20.1425 24.7279 19.32 21.5814 20.9233 20.2915C22.5265 19.0016 25.2025 19.306 26.0369 17.6333Z" data-figma-gradient-fill="{&#34;type&#34;:&#34;GRADIENT_ANGULAR&#34;,&#34;stops&#34;:[{&#34;color&#34;:{&#34;r&#34;:1.0,&#34;g&#34;:0.41960784792900085,&#34;b&#34;:0.062745101749897003,&#34;a&#34;:1.0},&#34;position&#34;:0.19026148319244385},{&#34;color&#34;:{&#34;r&#34;:1.0,&#34;g&#34;:0.51010364294052124,&#34;b&#34;:0.89385569095611572,&#34;a&#34;:1.0},&#34;position&#34;:0.24241268634796143},{&#34;color&#34;:{&#34;r&#34;:0.58039218187332153,&#34;g&#34;:0.31372550129890442,&#34;b&#34;:0.99215686321258545,&#34;a&#34;:1.0},&#34;position&#34;:0.43959093093872070},{&#34;color&#34;:{&#34;r&#34;:0.0,&#34;g&#34;:0.45490196347236633,&#34;b&#34;:0.99215686321258545,&#34;a&#34;:1.0},&#34;position&#34;:0.56439012289047241},{&#34;color&#34;:{&#34;r&#34;:0.58039218187332153,&#34;g&#34;:0.31372550129890442,&#34;b&#34;:0.99215686321258545,&#34;a&#34;:1.0},&#34;position&#34;:0.69780862331390381},{&#34;color&#34;:{&#34;r&#34;:1.0,&#34;g&#34;:0.83921569585800171,&#34;b&#34;:0.20000000298023224,&#34;a&#34;:1.0},&#34;position&#34;:0.96488827466964722}],&#34;stopsVar&#34;:[{&#34;color&#34;:{&#34;r&#34;:1.0,&#34;g&#34;:0.41960784792900085,&#34;b&#34;:0.062745101749897003,&#34;a&#34;:1.0},&#34;position&#34;:0.19026148319244385},{&#34;color&#34;:{&#34;r&#34;:1.0,&#34;g&#34;:0.51010364294052124,&#34;b&#34;:0.89385569095611572,&#34;a&#34;:1.0},&#34;position&#34;:0.24241268634796143},{&#34;color&#34;:{&#34;r&#34;:0.58039218187332153,&#34;g&#34;:0.31372550129890442,&#34;b&#34;:0.99215686321258545,&#34;a&#34;:1.0},&#34;position&#34;:0.43959093093872070},{&#34;color&#34;:{&#34;r&#34;:0.0,&#34;g&#34;:0.45490196347236633,&#34;b&#34;:0.99215686321258545,&#34;a&#34;:1.0},&#34;position&#34;:0.56439012289047241},{&#34;color&#34;:{&#34;r&#34;:0.58039218187332153,&#34;g&#34;:0.31372550129890442,&#34;b&#34;:0.99215686321258545,&#34;a&#34;:1.0},&#34;position&#34;:0.69780862331390381},{&#34;color&#34;:{&#34;r&#34;:1.0,&#34;g&#34;:0.83921569585800171,&#34;b&#34;:0.20000000298023224,&#34;a&#34;:1.0},&#34;position&#34;:0.96488827466964722}],&#34;transform&#34;:{&#34;m00&#34;:-8.1917448043823242,&#34;m01&#34;:17.292150497436523,&#34;m02&#34;:2.0486583709716797,&#34;m10&#34;:-18.504695892333984,&#34;m11&#34;:-7.6028976440429688,&#34;m12&#34;:20.230543136596680},&#34;opacity&#34;:1.0,&#34;blendMode&#34;:&#34;NORMAL&#34;,&#34;visible&#34;:true}"/>
<g clip-path="url(#paint7_angular_1156_514_clip_path)" data-figma-skip-parse="true"><g transform="matrix(-0.00391837 -0.0043116 0.0049853 -0.00354846 16.8481 16.6906)"><foreignObject x="-5603.75" y="-5603.75" width="11207.5" height="11207.5"><div xmlns="http://www.w3.org/1999/xhtml" style="background:conic-gradient(from 90deg,rgba(20, 203, 138, 1) 0deg,rgba(4, 204, 88, 1) 22.5512deg,rgba(255, 214, 51, 1) 58.2341deg,rgba(255, 214, 51, 1) 78.0887deg,rgba(160, 144, 172, 1) 142.439deg,rgba(97, 97, 255, 1) 180.672deg,rgba(255, 129, 227, 1) 246.749deg,rgba(3, 250, 250, 1) 267.686deg,rgba(57, 201, 255, 1) 306.698deg,rgba(20, 203, 138, 1) 360deg);height:100%;width:100%;opacity:1"></div></foreignObject></g></g><path d="M7.67773 15.3394C7.37377 15.8669 7.30796 16.4548 7.43312 17.0275C7.55828 17.6001 7.90063 18.1064 8.39531 18.456C8.88998 18.8056 9.48895 18.9623 10.082 18.9714C10.2757 18.9714 10.4694 18.9714 10.6601 18.9714C11.1041 18.9654 11.5451 18.9503 11.9802 18.9202C13.6937 18.7333 15.3833 17.9376 16.6498 16.6959C17.9252 15.4603 18.7865 13.7966 19.0576 12.0697C19.1262 11.5031 19.1798 10.9304 19.2126 10.3548C19.2245 10.1619 19.2334 9.96602 19.2424 9.77012C19.2662 9.16735 19.1381 8.55252 18.8103 8.03715C18.4855 7.52179 17.9938 7.15108 17.4306 7.0034C16.8674 6.85573 16.2675 6.91059 15.7341 7.19992C13.6184 8.20353 14.4327 11.3765 12.8295 12.6664C11.2263 13.9563 8.51212 13.6668 7.67773 15.3394Z" data-figma-gradient-fill="{&#34;type&#34;:&#34;GRADIENT_ANGULAR&#34;,&#34;stops&#34;:[{&#34;color&#34;:{&#34;r&#34;:0.019287083297967911,&#34;g&#34;:0.80359828472137451,&#34;b&#34;:0.34845396876335144,&#34;a&#34;:1.0},&#34;position&#34;:0.062642157077789307},{&#34;color&#34;:{&#34;r&#34;:1.0,&#34;g&#34;:0.83921569585800171,&#34;b&#34;:0.20000000298023224,&#34;a&#34;:1.0},&#34;position&#34;:0.16176138818264008},{&#34;color&#34;:{&#34;r&#34;:1.0,&#34;g&#34;:0.83921569585800171,&#34;b&#34;:0.20000000298023224,&#34;a&#34;:1.0},&#34;position&#34;:0.21691308915615082},{&#34;color&#34;:{&#34;r&#34;:0.63010036945343018,&#34;g&#34;:0.56530267000198364,&#34;b&#34;:0.67759191989898682,&#34;a&#34;:1.0},&#34;position&#34;:0.39566385746002197},{&#34;color&#34;:{&#34;r&#34;:0.38039216399192810,&#34;g&#34;:0.38039216399192810,&#34;b&#34;:1.0,&#34;a&#34;:1.0},&#34;position&#34;:0.50186586380004883},{&#34;color&#34;:{&#34;r&#34;:1.0,&#34;g&#34;:0.50588238239288330,&#34;b&#34;:0.89294117689132690,&#34;a&#34;:1.0},&#34;position&#34;:0.68541431427001953},{&#34;color&#34;:{&#34;r&#34;:0.011764706112444401,&#34;g&#34;:0.98039215803146362,&#34;b&#34;:0.98039215803146362,&#34;a&#34;:1.0},&#34;position&#34;:0.74357092380523682},{&#34;color&#34;:{&#34;r&#34;:0.22616812586784363,&#34;g&#34;:0.79014730453491211,&#34;b&#34;:1.0,&#34;a&#34;:1.0},&#34;position&#34;:0.85193920135498047}],&#34;stopsVar&#34;:[{&#34;color&#34;:{&#34;r&#34;:0.019287083297967911,&#34;g&#34;:0.80359828472137451,&#34;b&#34;:0.34845396876335144,&#34;a&#34;:1.0},&#34;position&#34;:0.062642157077789307},{&#34;color&#34;:{&#34;r&#34;:1.0,&#34;g&#34;:0.83921569585800171,&#34;b&#34;:0.20000000298023224,&#34;a&#34;:1.0},&#34;position&#34;:0.16176138818264008},{&#34;color&#34;:{&#34;r&#34;:1.0,&#34;g&#34;:0.83921569585800171,&#34;b&#34;:0.20000000298023224,&#34;a&#34;:1.0},&#34;position&#34;:0.21691308915615082},{&#34;color&#34;:{&#34;r&#34;:0.63010036945343018,&#34;g&#34;:0.56530267000198364,&#34;b&#34;:0.67759191989898682,&#34;a&#34;:1.0},&#34;position&#34;:0.39566385746002197},{&#34;color&#34;:{&#34;r&#34;:0.38039216399192810,&#34;g&#34;:0.38039216399192810,&#34;b&#34;:1.0,&#34;a&#34;:1.0},&#34;position&#34;:0.50186586380004883},{&#34;color&#34;:{&#34;r&#34;:1.0,&#34;g&#34;:0.50588238239288330,&#34;b&#34;:0.89294117689132690,&#34;a&#34;:1.0},&#34;position&#34;:0.68541431427001953},{&#34;color&#34;:{&#34;r&#34;:0.011764706112444401,&#34;g&#34;:0.98039215803146362,&#34;b&#34;:0.98039215803146362,&#34;a&#34;:1.0},&#34;position&#34;:0.74357092380523682},{&#34;color&#34;:{&#34;r&#34;:0.22616812586784363,&#34;g&#34;:0.79014730453491211,&#34;b&#34;:1.0,&#34;a&#34;:1.0},&#34;position&#34;:0.85193920135498047}],&#34;transform&#34;:{&#34;m00&#34;:-7.8367376327514648,&#34;m01&#34;:9.9706058502197266,&#34;m02&#34;:15.781167030334473,&#34;m10&#34;:-8.6231975555419922,&#34;m11&#34;:-7.0969114303588867,&#34;m12&#34;:24.550636291503906},&#34;opacity&#34;:1.0,&#34;blendMode&#34;:&#34;NORMAL&#34;,&#34;visible&#34;:true}"/>
<defs>
<clipPath id="paint0_angular_1156_514_clip_path"><path d="M15.7272 25.6921C16.2516 25.9995 16.851 26.105 17.4204 25.9784C17.9898 25.8518 18.4933 25.5052 18.8409 25.0049C19.1886 24.5046 19.3444 23.8989 19.3534 23.2991C19.3534 23.1032 19.3534 22.9073 19.3534 22.7144C19.3474 22.2654 19.3324 21.8193 19.3025 21.3793C19.1166 19.6463 18.3255 17.9375 17.0908 16.6566C15.8621 15.3667 14.2078 14.4957 12.4906 14.2214C11.9272 14.1521 11.3578 14.0978 10.7854 14.0647C10.5936 14.0526 10.3988 14.0436 10.204 14.0345C9.60461 14.0104 8.99325 14.14 8.48079 14.4716C7.96833 14.8001 7.59971 15.2973 7.45287 15.867C7.30602 16.4366 7.38694 17.0514 7.67463 17.5909C8.67259 19.7307 11.8013 18.8989 13.084 20.5203C14.3666 22.1418 14.0669 24.8543 15.7302 25.6981L15.7272 25.6921Z"/></clipPath><clipPath id="paint1_angular_1156_514_clip_path"><path d="M18.0504 7.26987C17.526 6.96246 16.9266 6.85698 16.3572 6.98356C15.7878 7.11014 15.2843 7.45673 14.9367 7.95703C14.589 8.45733 14.4332 9.06311 14.4242 9.66287C14.4242 9.85877 14.4242 10.0547 14.4242 10.2476C14.4302 10.6966 14.4452 11.1427 14.4752 11.5827C14.661 13.3156 15.4521 15.0245 16.6868 16.3054C17.9156 17.5953 19.5698 18.4663 21.287 18.7406C21.8504 18.8099 22.4198 18.8641 22.9922 18.8973C23.184 18.9093 23.3788 18.9184 23.5736 18.9274C24.173 18.9515 24.7844 18.8219 25.2968 18.4904C25.8093 18.1619 26.1779 17.6646 26.3247 17.095C26.4716 16.5254 26.3907 15.9106 26.103 15.3711C25.105 13.2313 21.9763 14.0631 20.6936 12.4416C19.411 10.8202 19.7107 8.10772 18.0474 7.26385L18.0504 7.26987Z"/></clipPath><clipPath id="paint2_angular_1156_514_clip_path"><path d="M26.143 17.6333C26.4487 17.1059 26.5536 16.5031 26.4277 15.9305C26.3018 15.3578 25.9572 14.8515 25.4597 14.5019C24.9622 14.1523 24.3599 13.9956 23.7635 13.9865C23.5687 13.9865 23.3739 13.9865 23.1821 13.9865C22.7356 13.9926 22.292 14.0076 21.8545 14.0378C20.1313 14.2246 18.4321 15.0203 17.1584 16.262C15.8758 17.4977 15.0097 19.1613 14.7369 20.8882C14.668 21.4549 14.6141 22.0275 14.5811 22.6031C14.5691 22.796 14.5601 22.9919 14.5511 23.1878C14.5272 23.7906 14.656 24.4054 14.9857 24.9208C15.3123 25.4361 15.8068 25.8068 16.3732 25.9545C16.9396 26.1022 17.551 26.0208 18.0874 25.7315C20.2152 24.7279 19.3881 21.5814 21.0004 20.2915C22.6127 19.0016 25.3039 19.306 26.143 17.6333Z"/></clipPath><clipPath id="paint3_angular_1156_514_clip_path"><path d="M7.67945 15.3394C7.37377 15.8669 7.30725 16.4548 7.43312 17.0275C7.55899 17.6001 7.90362 18.1064 8.4011 18.456C8.89858 18.8056 9.50095 18.9623 10.0973 18.9714C10.2921 18.9714 10.4869 18.9714 10.6787 18.9714C11.1252 18.9654 11.5688 18.9503 12.0063 18.9202C13.7295 18.7333 15.4287 17.9376 16.7024 16.6959C17.9851 15.4603 18.8512 13.7966 19.1239 12.0697C19.1928 11.5031 19.2467 10.9304 19.2797 10.3548C19.2917 10.1619 19.3007 9.96602 19.3097 9.77012C19.3336 9.16735 19.2048 8.55252 18.8751 8.03715C18.5485 7.52179 18.054 7.15108 17.4876 7.0034C16.9212 6.85573 16.318 6.91059 15.7815 7.19992C13.6538 8.20353 14.4727 11.3765 12.8604 12.6664C11.2481 13.9563 8.51858 13.6668 7.67945 15.3394Z"/></clipPath><clipPath id="paint4_angular_1156_514_clip_path"><path d="M15.6802 25.6921C16.2016 25.9995 16.7976 26.105 17.3638 25.9784C17.93 25.8518 18.4307 25.5052 18.7763 25.0049C19.122 24.5046 19.277 23.8989 19.2859 23.2991C19.2859 23.1032 19.2859 22.9073 19.2859 22.7144C19.2799 22.2654 19.2651 21.8193 19.2353 21.3793C19.0505 19.6463 18.2638 17.9375 17.036 16.6566C15.8142 15.3667 14.1693 14.4957 12.4618 14.2214C11.9016 14.1521 11.3354 14.0978 10.7662 14.0647C10.5755 14.0526 10.3818 14.0436 10.1881 14.0345C9.59208 14.0104 8.98417 14.14 8.47459 14.4716C7.96502 14.8001 7.59889 15.2973 7.45287 15.867C7.30685 16.4366 7.3869 17.0514 7.67298 17.5909C8.66531 19.7307 11.7764 18.8989 13.0518 20.5203C14.3272 22.1418 14.0292 24.8543 15.6831 25.6981L15.6802 25.6921Z"/></clipPath><clipPath id="paint5_angular_1156_514_clip_path"><path d="M17.9903 7.26987C17.4688 6.96246 16.8728 6.85698 16.3066 6.98356C15.7405 7.11014 15.2398 7.45673 14.8941 7.95703C14.5485 8.45733 14.3935 9.06311 14.3846 9.66287C14.3846 9.85877 14.3846 10.0547 14.3846 10.2476C14.3905 10.6966 14.4054 11.1427 14.4352 11.5827C14.62 13.3156 15.4067 15.0245 16.6344 16.3054C17.8562 17.5953 19.5012 18.4663 21.2087 18.7406C21.7689 18.8099 22.3351 18.8641 22.9043 18.8973C23.095 18.9093 23.2887 18.9184 23.4824 18.9274C24.0784 18.9515 24.6863 18.8219 25.1959 18.4904C25.7055 18.1619 26.072 17.6646 26.218 17.095C26.364 16.5254 26.2836 15.9106 25.9975 15.3711C25.0052 13.2313 21.8941 14.0631 20.6187 12.4416C19.3432 10.8202 19.6412 8.10772 17.9873 7.26385L17.9903 7.26987Z"/></clipPath><clipPath id="paint6_angular_1156_514_clip_path"><path d="M26.0369 17.6333C26.3408 17.1059 26.4451 16.5031 26.32 15.9305C26.1948 15.3578 25.8521 14.8515 25.3575 14.5019C24.8628 14.1523 24.2638 13.9956 23.6708 13.9865C23.4771 13.9865 23.2834 13.9865 23.0927 13.9865C22.6487 13.9926 22.2076 14.0076 21.7726 14.0378C20.0591 14.2246 18.3694 15.0203 17.103 16.262C15.8275 17.4977 14.9663 19.1613 14.6951 20.8882C14.6266 21.4549 14.573 22.0275 14.5402 22.6031C14.5283 22.796 14.5193 22.9919 14.5104 23.1878C14.4865 23.7906 14.6147 24.4054 14.9425 24.9208C15.2673 25.4361 15.759 25.8068 16.3222 25.9545C16.8854 26.1022 17.4933 26.0208 18.0267 25.7315C20.1425 24.7279 19.32 21.5814 20.9233 20.2915C22.5265 19.0016 25.2025 19.306 26.0369 17.6333Z"/></clipPath><clipPath id="paint7_angular_1156_514_clip_path"><path d="M7.67773 15.3394C7.37377 15.8669 7.30796 16.4548 7.43312 17.0275C7.55828 17.6001 7.90063 18.1064 8.39531 18.456C8.88998 18.8056 9.48895 18.9623 10.082 18.9714C10.2757 18.9714 10.4694 18.9714 10.6601 18.9714C11.1041 18.9654 11.5451 18.9503 11.9802 18.9202C13.6937 18.7333 15.3833 17.9376 16.6498 16.6959C17.9252 15.4603 18.7865 13.7966 19.0576 12.0697C19.1262 11.5031 19.1798 10.9304 19.2126 10.3548C19.2245 10.1619 19.2334 9.96602 19.2424 9.77012C19.2662 9.16735 19.1381 8.55252 18.8103 8.03715C18.4855 7.52179 17.9938 7.15108 17.4306 7.0034C16.8674 6.85573 16.2675 6.91059 15.7341 7.19992C13.6184 8.20353 14.4327 11.3765 12.8295 12.6664C11.2263 13.9563 8.51212 13.6668 7.67773 15.3394Z"/></clipPath></defs>
</svg>
