<svg width="24" height="24" viewBox="0 0 24 24" fill="none" xmlns="http://www.w3.org/2000/svg">
<g clip-path="url(#clip0_681_160744)">
<path d="M12 23.3002C18.2408 23.3002 23.3 18.241 23.3 12.0002C23.3 5.75938 18.2408 0.700195 12 0.700195C5.75918 0.700195 0.699997 5.75938 0.699997 12.0002C0.699997 18.241 5.75918 23.3002 12 23.3002Z" stroke="#676879"/>
<path d="M16 11H13V8C13 7.447 12.553 7 12 7C11.447 7 11 7.447 11 8V11H8C7.447 11 7 11.447 7 12C7 12.553 7.447 13 8 13H11V16C11 16.553 11.447 17 12 17C12.553 17 13 16.553 13 16V13H16C16.553 13 17 12.553 17 12C17 11.447 16.553 11 16 11Z" fill="#676879"/>
</g>
<defs>
<clipPath id="clip0_681_160744">
<rect width="24" height="24" fill="white"/>
</clipPath>
</defs>
</svg>
