<svg width="319" height="56" viewBox="0 0 319 56" fill="none" xmlns="http://www.w3.org/2000/svg">
<g filter="url(#filter0_i_480_15520)">
<mask id="path-1-inside-1_480_15520" fill="white">
<path d="M0 9.69505C0 4.34062 4.34062 0 9.69505 0H309.172C314.527 0 318.868 4.34062 318.868 9.69505V46.216C318.868 51.5704 314.527 55.911 309.172 55.911H9.69505C4.34062 55.911 0 51.5704 0 46.216V9.69505Z"/>
</mask>
<path d="M0 9.69505C0 4.34062 4.34062 0 9.69505 0H309.172C314.527 0 318.868 4.34062 318.868 9.69505V46.216C318.868 51.5704 314.527 55.911 309.172 55.911H9.69505C4.34062 55.911 0 51.5704 0 46.216V9.69505Z" fill="#F3F4F5"/>
<path d="M0 9.69505C0 4.34062 4.34062 0 9.69505 0H309.172C314.527 0 318.868 4.34062 318.868 9.69505V46.216C318.868 51.5704 314.527 55.911 309.172 55.911H9.69505C4.34062 55.911 0 51.5704 0 46.216V9.69505Z" fill="url(#paint0_linear_480_15520)"/>
<g clip-path="url(#paint1_angular_480_15520_clip_path)" data-figma-skip-parse="true" mask="url(#path-1-inside-1_480_15520)"><g transform="matrix(0 0.0279555 -0.159434 0 159.434 27.9555)"><foreignObject x="-1031.25" y="-1031.25" width="2062.5" height="2062.5"><div xmlns="http://www.w3.org/1999/xhtml" style="background:conic-gradient(from 90deg,rgba(129, 129, 255, 1) 0deg,rgba(129, 129, 255, 1) 56.3766deg,rgba(51, 219, 219, 1) 149.977deg,rgba(51, 213, 142, 1) 191.377deg,rgba(255, 214, 51, 1) 230.977deg,rgba(252, 82, 125, 1) 308.377deg,rgba(129, 129, 255, 1) 360deg);height:100%;width:100%;opacity:1"></div></foreignObject></g></g><path d="M9.69505 0V0.87361H309.172V0V-0.87361H9.69505V0ZM318.868 9.69505H317.994V46.216H318.868H319.741V9.69505H318.868ZM309.172 55.911V55.0374H9.69505V55.911V56.7846H309.172V55.911ZM0 46.216H0.87361V9.69505H0H-0.87361V46.216H0ZM9.69505 55.911V55.0374C4.8231 55.0374 0.87361 51.0879 0.87361 46.216H0H-0.87361C-0.87361 52.0529 3.85814 56.7846 9.69505 56.7846V55.911ZM318.868 46.216H317.994C317.994 51.0879 314.044 55.0374 309.172 55.0374V55.911V56.7846C315.009 56.7846 319.741 52.0529 319.741 46.216H318.868ZM309.172 0V0.87361C314.044 0.87361 317.994 4.8231 317.994 9.69505H318.868H319.741C319.741 3.85814 315.009 -0.87361 309.172 -0.87361V0ZM9.69505 0V-0.87361C3.85814 -0.87361 -0.87361 3.85814 -0.87361 9.69505H0H0.87361C0.87361 4.8231 4.8231 0.87361 9.69505 0.87361V0Z" data-figma-gradient-fill="{&#34;type&#34;:&#34;GRADIENT_ANGULAR&#34;,&#34;stops&#34;:[{&#34;color&#34;:{&#34;r&#34;:0.50588238239288330,&#34;g&#34;:0.50588238239288330,&#34;b&#34;:1.0,&#34;a&#34;:1.0},&#34;position&#34;:0.15660156309604645},{&#34;color&#34;:{&#34;r&#34;:0.20000000298023224,&#34;g&#34;:0.85882353782653809,&#34;b&#34;:0.85882353782653809,&#34;a&#34;:1.0},&#34;position&#34;:0.41660156846046448},{&#34;color&#34;:{&#34;r&#34;:0.20000000298023224,&#34;g&#34;:0.83529412746429443,&#34;b&#34;:0.55686277151107788,&#34;a&#34;:1.0},&#34;position&#34;:0.53160154819488525},{&#34;color&#34;:{&#34;r&#34;:1.0,&#34;g&#34;:0.83921569585800171,&#34;b&#34;:0.20000000298023224,&#34;a&#34;:1.0},&#34;position&#34;:0.64160156250},{&#34;color&#34;:{&#34;r&#34;:0.98823529481887817,&#34;g&#34;:0.32156863808631897,&#34;b&#34;:0.49019607901573181,&#34;a&#34;:1.0},&#34;position&#34;:0.85660153627395630},{&#34;color&#34;:{&#34;r&#34;:0.50588238239288330,&#34;g&#34;:0.50588238239288330,&#34;b&#34;:1.0,&#34;a&#34;:1.0},&#34;position&#34;:1.0}],&#34;stopsVar&#34;:[{&#34;color&#34;:{&#34;r&#34;:0.50588238239288330,&#34;g&#34;:0.50588238239288330,&#34;b&#34;:1.0,&#34;a&#34;:1.0},&#34;position&#34;:0.15660156309604645},{&#34;color&#34;:{&#34;r&#34;:0.20000000298023224,&#34;g&#34;:0.85882353782653809,&#34;b&#34;:0.85882353782653809,&#34;a&#34;:1.0},&#34;position&#34;:0.41660156846046448},{&#34;color&#34;:{&#34;r&#34;:0.20000000298023224,&#34;g&#34;:0.83529412746429443,&#34;b&#34;:0.55686277151107788,&#34;a&#34;:1.0},&#34;position&#34;:0.53160154819488525},{&#34;color&#34;:{&#34;r&#34;:1.0,&#34;g&#34;:0.83921569585800171,&#34;b&#34;:0.20000000298023224,&#34;a&#34;:1.0},&#34;position&#34;:0.64160156250},{&#34;color&#34;:{&#34;r&#34;:0.98823529481887817,&#34;g&#34;:0.32156863808631897,&#34;b&#34;:0.49019607901573181,&#34;a&#34;:1.0},&#34;position&#34;:0.85660153627395630},{&#34;color&#34;:{&#34;r&#34;:0.50588238239288330,&#34;g&#34;:0.50588238239288330,&#34;b&#34;:1.0,&#34;a&#34;:1.0},&#34;position&#34;:1.0}],&#34;transform&#34;:{&#34;m00&#34;:1.9525005595069818e-14,&#34;m01&#34;:-318.86752319335938,&#34;m02&#34;:318.86752319335938,&#34;m10&#34;:55.911026000976562,&#34;m11&#34;:3.4235631772008487e-15,&#34;m12&#34;:-3.4235631772008487e-15},&#34;opacity&#34;:1.0,&#34;blendMode&#34;:&#34;NORMAL&#34;,&#34;visible&#34;:true}" mask="url(#path-1-inside-1_480_15520)"/>
</g>
<defs>
<filter id="filter0_i_480_15520" x="0" y="0" width="318.868" height="60.7587" filterUnits="userSpaceOnUse" color-interpolation-filters="sRGB">
<feFlood flood-opacity="0" result="BackgroundImageFix"/>
<feBlend mode="normal" in="SourceGraphic" in2="BackgroundImageFix" result="shape"/>
<feColorMatrix in="SourceAlpha" type="matrix" values="0 0 0 0 0 0 0 0 0 0 0 0 0 0 0 0 0 0 127 0" result="hardAlpha"/>
<feOffset dy="4.84752"/>
<feGaussianBlur stdDeviation="2.42376"/>
<feComposite in2="hardAlpha" operator="arithmetic" k2="-1" k3="1"/>
<feColorMatrix type="matrix" values="0 0 0 0 0 0 0 0 0 0 0 0 0 0 0 0 0 0 0.1 0"/>
<feBlend mode="normal" in2="shape" result="effect1_innerShadow_480_15520"/>
</filter>
<clipPath id="paint1_angular_480_15520_clip_path"><path d="M9.69505 0V0.87361H309.172V0V-0.87361H9.69505V0ZM318.868 9.69505H317.994V46.216H318.868H319.741V9.69505H318.868ZM309.172 55.911V55.0374H9.69505V55.911V56.7846H309.172V55.911ZM0 46.216H0.87361V9.69505H0H-0.87361V46.216H0ZM9.69505 55.911V55.0374C4.8231 55.0374 0.87361 51.0879 0.87361 46.216H0H-0.87361C-0.87361 52.0529 3.85814 56.7846 9.69505 56.7846V55.911ZM318.868 46.216H317.994C317.994 51.0879 314.044 55.0374 309.172 55.0374V55.911V56.7846C315.009 56.7846 319.741 52.0529 319.741 46.216H318.868ZM309.172 0V0.87361C314.044 0.87361 317.994 4.8231 317.994 9.69505H318.868H319.741C319.741 3.85814 315.009 -0.87361 309.172 -0.87361V0ZM9.69505 0V-0.87361C3.85814 -0.87361 -0.87361 3.85814 -0.87361 9.69505H0H0.87361C0.87361 4.8231 4.8231 0.87361 9.69505 0.87361V0Z" mask="url(#path-1-inside-1_480_15520)"/></clipPath><linearGradient id="paint0_linear_480_15520" x1="0" y1="27.9555" x2="318.868" y2="27.9555" gradientUnits="userSpaceOnUse">
<stop stop-color="#FEACFE" stop-opacity="0.2"/>
<stop offset="0.5" stop-color="white" stop-opacity="0.2"/>
<stop offset="1" stop-color="#03FAFA" stop-opacity="0.2"/>
</linearGradient>
</defs>
</svg>
