<svg width="20" height="84" viewBox="0 0 20 84" fill="none" xmlns="http://www.w3.org/2000/svg">
<path d="M10.002 0L10.002 62.8999" stroke="#C3C6D4" stroke-dasharray="6.99 3.49"/>
<rect x="0.5" y="63.4004" width="19" height="19.9666" rx="2.99444" fill="white"/>
<rect x="0.5" y="63.4004" width="19" height="19.9666" rx="2.99444" stroke="#C3C6D4"/>
<path fill-rule="evenodd" clip-rule="evenodd" d="M9.99988 67.9668C10.2894 67.9668 10.524 68.2015 10.524 68.491V72.859H14.8921C15.1816 72.859 15.4163 73.0937 15.4163 73.3832C15.4163 73.6727 15.1816 73.9073 14.8921 73.9073H10.524V78.2754C10.524 78.5649 10.2894 78.7996 9.99988 78.7996C9.71039 78.7996 9.47571 78.5649 9.47571 78.2754V73.9073H5.10766C4.81817 73.9073 4.5835 73.6727 4.5835 73.3832C4.5835 73.0937 4.81817 72.859 5.10766 72.859H9.47571V68.491C9.47571 68.2015 9.71039 67.9668 9.99988 67.9668Z" fill="#676879"/>
</svg>
