<svg width="319" height="56" viewBox="0 0 319 56" fill="none" xmlns="http://www.w3.org/2000/svg">
<rect x="0.436805" y="0.436805" width="317.994" height="55.0374" rx="9.25824" fill="white"/>
<rect x="0.436805" y="0.436805" width="317.994" height="55.0374" rx="9.25824" stroke="#C3C6D4" stroke-width="0.87361"/>
<rect x="10.4834" y="6.98877" width="41.9333" height="41.9333" rx="6.98888" fill="#F6F7FB"/>
<path fill-rule="evenodd" clip-rule="evenodd" d="M31.45 18.2324C31.9566 18.2324 32.3673 18.6431 32.3673 19.1497V20.1411C33.9629 20.3217 35.4597 21.0373 36.6063 22.1839C37.9432 23.5208 38.6943 25.334 38.6943 27.2247C38.6943 30.0845 38.9995 31.6919 39.2724 32.5519C39.4081 32.9794 39.5328 33.2129 39.601 33.321C39.6242 33.3577 39.6407 33.3799 39.649 33.3904C39.9109 33.6374 40.0056 34.0178 39.8846 34.3617C39.7554 34.7289 39.4086 34.9747 39.0193 34.9747H35.0616C35.0599 35.054 35.0479 35.1345 35.0245 35.2143C34.8058 35.9605 34.3517 36.616 33.7297 37.0825C33.1077 37.549 32.3514 37.8013 31.574 37.8013C30.7966 37.8013 30.0403 37.549 29.4183 37.0825C28.7964 36.616 28.3422 35.9605 28.1236 35.2143C28.1002 35.1345 28.0881 35.054 28.0865 34.9747H24.1116C23.7608 34.9747 23.4406 34.7745 23.287 34.4591C23.1362 34.1496 23.1716 33.7823 23.3773 33.5076C23.3794 33.5046 23.3837 33.4981 23.3901 33.4881C23.4079 33.46 23.4418 33.4034 23.4869 33.3141C23.577 33.1356 23.7124 32.8251 23.853 32.3486C24.1344 31.395 24.4366 29.7763 24.4366 27.2247C24.4366 25.334 25.1877 23.5208 26.5246 22.1839C27.6157 21.0928 29.024 20.3919 30.5327 20.1711V19.1497C30.5327 18.6431 30.9434 18.2324 31.45 18.2324ZM29.9909 34.9747C30.1131 35.226 30.2937 35.4458 30.5191 35.6148C30.8237 35.8433 31.1939 35.9667 31.574 35.9667C31.9542 35.9667 32.3243 35.8433 32.629 35.6148C32.8543 35.4458 33.0349 35.226 33.1572 34.9747H29.9909ZM27.8219 23.4811C28.8147 22.4883 30.1613 21.9305 31.5655 21.9305C32.9696 21.9305 34.3162 22.4883 35.309 23.4811C36.3019 24.474 36.8597 25.8206 36.8597 27.2247C36.8597 30.2004 37.1755 32.0094 37.5238 33.1068L37.5344 33.1401H25.5281C25.5563 33.0537 25.5845 32.963 25.6126 32.8678C25.9523 31.7166 26.2712 29.9189 26.2712 27.2247C26.2712 25.8206 26.829 24.474 27.8219 23.4811Z" fill="#323338"/>
<path d="M67.443 32.9556L60.9433 24.0657L62.2432 23.1711L68.7289 32.033L67.443 32.9556ZM60.5659 32.9556V23.1711H62.2432L62.1873 24.5689V32.9556H60.5659ZM67.443 32.9556V23.1711H69.0644V32.9556H67.443ZM74.3118 33.1233C73.6129 33.1233 72.9886 32.9695 72.4388 32.662C71.8983 32.3452 71.4744 31.9119 71.1668 31.3621C70.8593 30.8123 70.7056 30.1787 70.7056 29.4611C70.7056 28.7436 70.8547 28.1099 71.1529 27.5602C71.4604 27.0104 71.8844 26.5817 72.4248 26.2742C72.9653 25.9574 73.585 25.799 74.2839 25.799C74.9828 25.799 75.6024 25.9574 76.1429 26.2742C76.6834 26.5817 77.1027 27.0104 77.4009 27.5602C77.7084 28.1099 77.8622 28.7436 77.8622 29.4611C77.8622 30.1787 77.7131 30.8123 77.4149 31.3621C77.1167 31.9119 76.6974 32.3452 76.1569 32.662C75.6164 32.9695 75.0014 33.1233 74.3118 33.1233ZM74.3118 31.6836C74.6939 31.6836 75.034 31.5904 75.3322 31.404C75.6304 31.2083 75.8634 30.9474 76.0311 30.6213C76.1988 30.2858 76.2827 29.8991 76.2827 29.4611C76.2827 29.0232 76.1942 28.6411 76.0171 28.315C75.8494 27.9795 75.6164 27.7186 75.3182 27.5322C75.02 27.3365 74.6753 27.2387 74.2839 27.2387C73.8925 27.2387 73.5477 27.3318 73.2495 27.5182C72.9513 27.7046 72.7184 27.9655 72.5506 28.301C72.3829 28.6364 72.299 29.0232 72.299 29.4611C72.299 29.8991 72.3829 30.2858 72.5506 30.6213C72.7277 30.9474 72.9653 31.2083 73.2635 31.404C73.571 31.5904 73.9205 31.6836 74.3118 31.6836ZM82.0004 33.1233C81.2642 33.1233 80.7004 32.9416 80.3091 32.5782C79.927 32.2054 79.736 31.6743 79.736 30.9847V23.7862H81.2875V30.6912C81.2875 31.0173 81.362 31.2643 81.5111 31.432C81.6696 31.5997 81.8979 31.6836 82.1961 31.6836C82.2892 31.6836 82.3917 31.665 82.5036 31.6277C82.6154 31.5904 82.7412 31.5205 82.881 31.418L83.454 32.6061C83.2118 32.7739 82.9695 32.8997 82.7272 32.9835C82.4849 33.0767 82.2426 33.1233 82.0004 33.1233ZM78.5758 27.3086V25.9667H83.1745V27.3086H78.5758ZM84.804 32.9556L84.818 25.9667H86.3695L86.3555 32.9556H84.804ZM85.5868 24.6388C85.3352 24.6388 85.1162 24.5503 84.9298 24.3732C84.7527 24.1869 84.6642 23.9679 84.6642 23.7163C84.6642 23.4647 84.7527 23.2503 84.9298 23.0733C85.1162 22.8962 85.3352 22.8077 85.5868 22.8077C85.8383 22.8077 86.0527 22.8962 86.2297 23.0733C86.4161 23.2503 86.5093 23.4647 86.5093 23.7163C86.5093 23.9679 86.4161 24.1869 86.2297 24.3732C86.0527 24.5503 85.8383 24.6388 85.5868 24.6388ZM88.8995 32.9556V25.2259C88.8995 24.4897 89.0812 23.9259 89.4446 23.5346C89.8174 23.1339 90.3765 22.9335 91.1219 22.9335C91.3642 22.9335 91.6205 22.9755 91.8907 23.0593C92.1703 23.1339 92.4358 23.2364 92.6874 23.3668L92.1144 24.527C91.9373 24.4431 91.7789 24.3825 91.6391 24.3453C91.5087 24.308 91.3922 24.2894 91.2897 24.2894C91.0101 24.2894 90.8005 24.3825 90.6607 24.5689C90.5302 24.746 90.465 25.0395 90.465 25.4495V32.9556H88.8995ZM87.6974 27.2526V25.9667H92.2961V27.2526H87.6974ZM94.6693 35.9189C94.4457 35.9189 94.1941 35.8769 93.9145 35.7931C93.6443 35.7092 93.3834 35.602 93.1318 35.4716L93.7189 34.1996C93.8959 34.2835 94.059 34.3487 94.2081 34.3953C94.3572 34.4512 94.4783 34.4791 94.5715 34.4791C94.7951 34.4791 94.9815 34.4186 95.1306 34.2974C95.289 34.1856 95.4148 34.0179 95.508 33.7942L96.3327 31.8653L98.6949 25.9667H100.4L97.1574 33.6964C96.9617 34.1437 96.7613 34.5351 96.5563 34.8705C96.3607 35.206 96.1137 35.4622 95.8155 35.6393C95.5173 35.8257 95.1353 35.9189 94.6693 35.9189ZM95.9134 32.9556L92.7823 25.9667H94.4876L96.9198 31.8513L97.423 32.9556H95.9134ZM107.821 33.1233C107.14 33.1233 106.535 32.9695 106.004 32.662C105.482 32.3452 105.067 31.9119 104.76 31.3621C104.461 30.8123 104.312 30.1787 104.312 29.4611C104.312 28.7436 104.466 28.1099 104.774 27.5602C105.081 27.0104 105.5 26.5817 106.032 26.2742C106.572 25.9574 107.187 25.799 107.877 25.799C108.501 25.799 109.06 25.962 109.554 26.2882C110.057 26.605 110.458 27.0663 110.756 27.672C111.054 28.2777 111.203 28.9999 111.203 29.8385H109.624C109.624 29.2328 109.549 28.7343 109.4 28.3429C109.26 27.9515 109.055 27.6627 108.785 27.4763C108.524 27.2806 108.203 27.1828 107.821 27.1828C107.42 27.1828 107.075 27.2713 106.786 27.4483C106.497 27.6254 106.278 27.8863 106.129 28.2311C105.98 28.5666 105.906 28.9905 105.906 29.5031C105.906 29.9597 105.994 30.351 106.171 30.6772C106.358 31.0033 106.605 31.2549 106.912 31.432C107.229 31.5997 107.578 31.6836 107.96 31.6836C108.38 31.6836 108.725 31.5904 108.995 31.404C109.265 31.2083 109.475 30.9614 109.624 30.6632L111.064 31.2782C110.868 31.651 110.616 31.9771 110.309 32.2567C110.011 32.5362 109.652 32.7506 109.232 32.8997C108.822 33.0488 108.352 33.1233 107.821 33.1233ZM105.347 29.8385V28.5945H110.379V29.8385H105.347ZM114.946 33.1233C114.48 33.1233 114.052 33.0534 113.66 32.9136C113.269 32.7739 112.933 32.5782 112.654 32.3266C112.374 32.0656 112.16 31.7628 112.011 31.418L113.367 30.817C113.507 31.0779 113.712 31.2969 113.982 31.4739C114.261 31.651 114.569 31.7395 114.904 31.7395C115.268 31.7395 115.557 31.6789 115.771 31.5578C115.995 31.4273 116.106 31.2503 116.106 31.0266C116.106 30.8123 116.023 30.6492 115.855 30.5374C115.687 30.4163 115.449 30.3184 115.142 30.2439L114.485 30.0622C113.823 29.8944 113.306 29.6289 112.933 29.2654C112.561 28.8927 112.374 28.4687 112.374 27.9935C112.374 27.2946 112.598 26.7541 113.045 26.372C113.502 25.99 114.154 25.799 115.002 25.799C115.431 25.799 115.822 25.8642 116.176 25.9946C116.54 26.1158 116.852 26.2928 117.113 26.5258C117.374 26.7494 117.555 27.015 117.658 27.3225L116.358 27.9096C116.265 27.6766 116.088 27.4996 115.827 27.3784C115.566 27.248 115.277 27.1828 114.96 27.1828C114.643 27.1828 114.396 27.2526 114.219 27.3924C114.042 27.5229 113.954 27.7092 113.954 27.9515C113.954 28.0913 114.033 28.2218 114.191 28.3429C114.35 28.4547 114.578 28.5479 114.876 28.6225L115.701 28.8182C116.158 28.93 116.53 29.107 116.819 29.3493C117.108 29.5823 117.322 29.8478 117.462 30.146C117.602 30.4349 117.672 30.7284 117.672 31.0266C117.672 31.446 117.551 31.814 117.308 32.1309C117.076 32.4477 116.754 32.6946 116.344 32.8717C115.934 33.0394 115.468 33.1233 114.946 33.1233ZM122.184 33.1233C121.467 33.1233 120.833 32.9695 120.283 32.662C119.733 32.3452 119.3 31.9119 118.983 31.3621C118.676 30.8123 118.522 30.1787 118.522 29.4611C118.522 28.7436 118.676 28.1099 118.983 27.5602C119.3 27.0104 119.729 26.5817 120.269 26.2742C120.819 25.9574 121.448 25.799 122.156 25.799C122.846 25.799 123.47 25.9667 124.029 26.3022C124.588 26.6283 125.003 27.0989 125.273 27.7139L123.82 28.273C123.671 27.9655 123.442 27.7186 123.135 27.5322C122.827 27.3458 122.478 27.2526 122.086 27.2526C121.704 27.2526 121.364 27.3505 121.066 27.5462C120.768 27.7325 120.535 27.9935 120.367 28.3289C120.199 28.6551 120.116 29.0325 120.116 29.4611C120.116 29.8898 120.199 30.2718 120.367 30.6073C120.544 30.9335 120.782 31.1944 121.08 31.3901C121.387 31.5764 121.732 31.6696 122.114 31.6696C122.506 31.6696 122.855 31.5718 123.163 31.3761C123.47 31.1711 123.698 30.8962 123.848 30.5514L125.301 31.1105C125.031 31.7442 124.616 32.238 124.057 32.5921C123.507 32.9462 122.883 33.1233 122.184 33.1233ZM130.752 32.9556L130.682 31.6417V29.3633C130.682 28.888 130.631 28.492 130.528 28.1752C130.426 27.8583 130.263 27.6161 130.039 27.4483C129.825 27.2806 129.54 27.1967 129.186 27.1967C128.86 27.1967 128.571 27.2666 128.32 27.4064C128.068 27.5462 127.858 27.7605 127.691 28.0494L126.265 27.5462C126.423 27.2387 126.628 26.9498 126.88 26.6796C127.132 26.4093 127.448 26.195 127.83 26.0366C128.222 25.8782 128.683 25.799 129.214 25.799C129.895 25.799 130.458 25.9248 130.906 26.1764C131.362 26.428 131.702 26.8007 131.926 27.2946C132.15 27.7885 132.261 28.3988 132.261 29.1257L132.219 32.9556H130.752ZM128.767 33.1233C127.928 33.1233 127.276 32.9369 126.81 32.5642C126.353 32.1914 126.125 31.665 126.125 30.9847C126.125 30.2579 126.367 29.7034 126.852 29.3214C127.346 28.9393 128.031 28.7483 128.907 28.7483H130.78V29.9503H129.41C128.786 29.9503 128.348 30.0389 128.096 30.2159C127.844 30.3837 127.719 30.6259 127.719 30.9428C127.719 31.213 127.826 31.4273 128.04 31.5857C128.264 31.7348 128.571 31.8094 128.963 31.8094C129.307 31.8094 129.606 31.7302 129.857 31.5718C130.118 31.404 130.319 31.1897 130.458 30.9288C130.607 30.6586 130.682 30.3697 130.682 30.0622H131.255C131.255 31.0127 131.05 31.7628 130.64 32.3126C130.239 32.8531 129.615 33.1233 128.767 33.1233ZM133.847 32.9556V23.1711H135.412V32.9556H133.847ZM141.385 32.9556L141.315 31.6417V29.3633C141.315 28.888 141.264 28.492 141.162 28.1752C141.059 27.8583 140.896 27.6161 140.672 27.4483C140.458 27.2806 140.174 27.1967 139.82 27.1967C139.494 27.1967 139.205 27.2666 138.953 27.4064C138.702 27.5462 138.492 27.7605 138.324 28.0494L136.898 27.5462C137.057 27.2387 137.262 26.9498 137.513 26.6796C137.765 26.4093 138.082 26.195 138.464 26.0366C138.855 25.8782 139.317 25.799 139.848 25.799C140.528 25.799 141.092 25.9248 141.539 26.1764C141.996 26.428 142.336 26.8007 142.559 27.2946C142.783 27.7885 142.895 28.3988 142.895 29.1257L142.853 32.9556H141.385ZM139.4 33.1233C138.562 33.1233 137.909 32.9369 137.444 32.5642C136.987 32.1914 136.759 31.665 136.759 30.9847C136.759 30.2579 137.001 29.7034 137.485 29.3214C137.979 28.9393 138.664 28.7483 139.54 28.7483H141.413V29.9503H140.043C139.419 29.9503 138.981 30.0389 138.73 30.2159C138.478 30.3837 138.352 30.6259 138.352 30.9428C138.352 31.213 138.459 31.4273 138.674 31.5857C138.897 31.7348 139.205 31.8094 139.596 31.8094C139.941 31.8094 140.239 31.7302 140.491 31.5718C140.752 31.404 140.952 31.1897 141.092 30.9288C141.241 30.6586 141.315 30.3697 141.315 30.0622H141.888C141.888 31.0127 141.683 31.7628 141.273 32.3126C140.873 32.8531 140.248 33.1233 139.4 33.1233ZM147.262 33.1233C146.526 33.1233 145.962 32.9416 145.57 32.5782C145.188 32.2054 144.997 31.6743 144.997 30.9847V23.7862H146.549V30.6912C146.549 31.0173 146.623 31.2643 146.773 31.432C146.931 31.5997 147.159 31.6836 147.457 31.6836C147.551 31.6836 147.653 31.665 147.765 31.6277C147.877 31.5904 148.003 31.5205 148.142 31.418L148.715 32.6061C148.473 32.7739 148.231 32.8997 147.989 32.9835C147.746 33.0767 147.504 33.1233 147.262 33.1233ZM143.837 27.3086V25.9667H148.436V27.3086H143.837ZM150.065 32.9556L150.079 25.9667H151.631L151.617 32.9556H150.065ZM150.848 24.6388C150.597 24.6388 150.378 24.5503 150.191 24.3732C150.014 24.1869 149.926 23.9679 149.926 23.7163C149.926 23.4647 150.014 23.2503 150.191 23.0733C150.378 22.8962 150.597 22.8077 150.848 22.8077C151.1 22.8077 151.314 22.8962 151.491 23.0733C151.677 23.2503 151.771 23.4647 151.771 23.7163C151.771 23.9679 151.677 24.1869 151.491 24.3732C151.314 24.5503 151.1 24.6388 150.848 24.6388ZM156.677 33.1233C155.978 33.1233 155.354 32.9695 154.804 32.662C154.263 32.3452 153.839 31.9119 153.532 31.3621C153.224 30.8123 153.071 30.1787 153.071 29.4611C153.071 28.7436 153.22 28.1099 153.518 27.5602C153.825 27.0104 154.249 26.5817 154.79 26.2742C155.33 25.9574 155.95 25.799 156.649 25.799C157.348 25.799 157.967 25.9574 158.508 26.2742C159.048 26.5817 159.468 27.0104 159.766 27.5602C160.073 28.1099 160.227 28.7436 160.227 29.4611C160.227 30.1787 160.078 30.8123 159.78 31.3621C159.482 31.9119 159.062 32.3452 158.522 32.662C157.981 32.9695 157.366 33.1233 156.677 33.1233ZM156.677 31.6836C157.059 31.6836 157.399 31.5904 157.697 31.404C157.995 31.2083 158.228 30.9474 158.396 30.6213C158.564 30.2858 158.648 29.8991 158.648 29.4611C158.648 29.0232 158.559 28.6411 158.382 28.315C158.214 27.9795 157.981 27.7186 157.683 27.5322C157.385 27.3365 157.04 27.2387 156.649 27.2387C156.258 27.2387 155.913 27.3318 155.615 27.5182C155.316 27.7046 155.083 27.9655 154.916 28.301C154.748 28.6364 154.664 29.0232 154.664 29.4611C154.664 29.8991 154.748 30.2858 154.916 30.6213C155.093 30.9474 155.33 31.2083 155.629 31.404C155.936 31.5904 156.285 31.6836 156.677 31.6836ZM161.584 32.9556V25.9667H163.051L163.149 27.2526V32.9556H161.584ZM166.322 32.9556V29.3773L167.888 28.9579V32.9556H166.322ZM166.322 29.3773C166.322 28.8182 166.257 28.3895 166.127 28.0913C166.005 27.7838 165.828 27.5695 165.595 27.4483C165.372 27.3272 165.106 27.2666 164.799 27.2666C164.277 27.2573 163.871 27.4297 163.583 27.7838C163.294 28.1379 163.149 28.6458 163.149 29.3074H162.562C162.562 28.5712 162.669 27.9422 162.884 27.4204C163.098 26.8892 163.406 26.4885 163.806 26.2183C164.207 25.9387 164.682 25.799 165.232 25.799C166.08 25.799 166.732 26.0599 167.189 26.5817C167.655 27.0942 167.888 27.8863 167.888 28.9579L166.322 29.3773ZM175.627 33.1233C174.891 33.1233 174.327 32.9416 173.935 32.5782C173.553 32.2054 173.362 31.6743 173.362 30.9847V23.7862H174.914V30.6912C174.914 31.0173 174.988 31.2643 175.138 31.432C175.296 31.5997 175.524 31.6836 175.822 31.6836C175.916 31.6836 176.018 31.665 176.13 31.6277C176.242 31.5904 176.368 31.5205 176.507 31.418L177.08 32.6061C176.838 32.7739 176.596 32.8997 176.354 32.9835C176.111 33.0767 175.869 33.1233 175.627 33.1233ZM172.202 27.3086V25.9667H176.801V27.3086H172.202ZM181.354 33.1233C180.674 33.1233 180.068 32.9695 179.537 32.662C179.015 32.3452 178.6 31.9119 178.293 31.3621C177.995 30.8123 177.846 30.1787 177.846 29.4611C177.846 28.7436 177.999 28.1099 178.307 27.5602C178.614 27.0104 179.034 26.5817 179.565 26.2742C180.105 25.9574 180.72 25.799 181.41 25.799C182.034 25.799 182.593 25.962 183.087 26.2882C183.59 26.605 183.991 27.0663 184.289 27.672C184.588 28.2777 184.737 28.9999 184.737 29.8385H183.157C183.157 29.2328 183.083 28.7343 182.934 28.3429C182.794 27.9515 182.589 27.6627 182.318 27.4763C182.058 27.2806 181.736 27.1828 181.354 27.1828C180.953 27.1828 180.609 27.2713 180.32 27.4483C180.031 27.6254 179.812 27.8863 179.663 28.2311C179.514 28.5666 179.439 28.9905 179.439 29.5031C179.439 29.9597 179.528 30.351 179.705 30.6772C179.891 31.0033 180.138 31.2549 180.445 31.432C180.762 31.5997 181.112 31.6836 181.494 31.6836C181.913 31.6836 182.258 31.5904 182.528 31.404C182.798 31.2083 183.008 30.9614 183.157 30.6632L184.597 31.2782C184.401 31.651 184.15 31.9771 183.842 32.2567C183.544 32.5362 183.185 32.7506 182.766 32.8997C182.356 33.0488 181.885 33.1233 181.354 33.1233ZM178.88 29.8385V28.5945H183.912V29.8385H178.88ZM190.171 32.9556L190.101 31.6417V29.3633C190.101 28.888 190.05 28.492 189.947 28.1752C189.845 27.8583 189.682 27.6161 189.458 27.4483C189.244 27.2806 188.96 27.1967 188.605 27.1967C188.279 27.1967 187.99 27.2666 187.739 27.4064C187.487 27.5462 187.278 27.7605 187.11 28.0494L185.684 27.5462C185.842 27.2387 186.047 26.9498 186.299 26.6796C186.551 26.4093 186.868 26.195 187.25 26.0366C187.641 25.8782 188.102 25.799 188.633 25.799C189.314 25.799 189.877 25.9248 190.325 26.1764C190.781 26.428 191.121 26.8007 191.345 27.2946C191.569 27.7885 191.681 28.3988 191.681 29.1257L191.639 32.9556H190.171ZM188.186 33.1233C187.347 33.1233 186.695 32.9369 186.229 32.5642C185.773 32.1914 185.544 31.665 185.544 30.9847C185.544 30.2579 185.787 29.7034 186.271 29.3214C186.765 28.9393 187.45 28.7483 188.326 28.7483H190.199V29.9503H188.829C188.205 29.9503 187.767 30.0389 187.515 30.2159C187.264 30.3837 187.138 30.6259 187.138 30.9428C187.138 31.213 187.245 31.4273 187.459 31.5857C187.683 31.7348 187.99 31.8094 188.382 31.8094C188.727 31.8094 189.025 31.7302 189.276 31.5718C189.537 31.404 189.738 31.1897 189.877 30.9288C190.026 30.6586 190.101 30.3697 190.101 30.0622H190.674C190.674 31.0127 190.469 31.7628 190.059 32.3126C189.658 32.8531 189.034 33.1233 188.186 33.1233ZM193.266 32.9556V25.9667H194.733L194.831 27.2526V32.9556H193.266ZM198.004 32.9556V29.3773L199.57 28.9579V32.9556H198.004ZM202.757 32.9556V29.3773L204.308 28.9579V32.9556H202.757ZM198.004 29.3773C198.004 28.8182 197.939 28.3895 197.809 28.0913C197.687 27.7838 197.51 27.5695 197.277 27.4483C197.054 27.3272 196.788 27.2666 196.481 27.2666C195.959 27.2573 195.553 27.4297 195.265 27.7838C194.976 28.1379 194.831 28.6458 194.831 29.3074H194.244C194.244 28.5712 194.351 27.9422 194.566 27.4204C194.78 26.8892 195.088 26.4885 195.488 26.2183C195.889 25.9387 196.364 25.799 196.914 25.799C197.762 25.799 198.414 26.0599 198.871 26.5817C199.337 27.0942 199.57 27.8863 199.57 28.9579L198.004 29.3773ZM202.757 29.3773C202.757 28.8182 202.691 28.3895 202.561 28.0913C202.431 27.7838 202.249 27.5695 202.016 27.4483C201.792 27.3272 201.531 27.2666 201.233 27.2666C200.702 27.2573 200.292 27.4297 200.003 27.7838C199.714 28.1379 199.57 28.6458 199.57 29.3074H198.983C198.983 28.5712 199.09 27.9422 199.304 27.4204C199.519 26.8892 199.826 26.4885 200.227 26.2183C200.627 25.9387 201.103 25.799 201.652 25.799C202.5 25.799 203.157 26.0599 203.623 26.5817C204.089 27.0942 204.318 27.8863 204.308 28.9579L202.757 29.3773Z" fill="#323338"/>
</svg>
