<svg width="61" height="25" viewBox="0 0 61 25" fill="none" xmlns="http://www.w3.org/2000/svg">
<rect x="0.302987" y="0.302498" width="60.0114" height="24.1934" rx="3.79741" fill="black"/>
<rect x="0.302987" y="0.302498" width="60.0114" height="24.1934" rx="3.79741" fill="white"/>
<rect x="0.302987" y="0.302498" width="60.0114" height="24.1934" rx="3.79741" stroke="black" stroke-width="0.605941"/>
<g clip-path="url(#clip0_126_32660)">
<path d="M24.9905 12.8403L24.0976 12.4123L26.8862 7.83804H28.0726L24.9905 12.8403ZM23.9753 16.3994V12.29H25.0027V16.3994H23.9753ZM23.9876 12.8403L20.9055 7.83804H22.1041L24.8804 12.4123L23.9876 12.8403ZM30.9828 16.5462C30.3875 16.5462 29.8616 16.4116 29.405 16.1426C28.9484 15.8653 28.5896 15.4862 28.3287 15.0051C28.076 14.5241 27.9496 13.9696 27.9496 13.3418C27.9496 12.7139 28.076 12.1595 28.3287 11.6784C28.5896 11.1974 28.9443 10.8223 29.3928 10.5532C29.8494 10.276 30.3712 10.1374 30.9583 10.1374C31.5209 10.1374 32.0101 10.2801 32.426 10.5654C32.8499 10.8427 33.1761 11.2341 33.4044 11.7396C33.6327 12.2451 33.7469 12.8403 33.7469 13.5252H32.7684C32.7684 13.0034 32.6991 12.559 32.5605 12.1921C32.4219 11.817 32.214 11.5276 31.9367 11.3237C31.6677 11.1199 31.3374 11.018 30.9461 11.018C30.5465 11.018 30.1918 11.1158 29.882 11.3115C29.5803 11.499 29.3479 11.7681 29.1849 12.1187C29.0218 12.4693 28.9403 12.8811 28.9403 13.354C28.9403 13.8188 29.0299 14.2224 29.2093 14.5648C29.3887 14.8991 29.6374 15.1641 29.9554 15.3598C30.2734 15.5474 30.6321 15.6411 31.0317 15.6411C31.4557 15.6411 31.8144 15.5392 32.108 15.3354C32.4015 15.1315 32.6339 14.8665 32.8051 14.5404L33.6612 14.9684C33.5063 15.2864 33.2984 15.5637 33.0375 15.8001C32.7847 16.0366 32.483 16.22 32.1324 16.3505C31.79 16.481 31.4067 16.5462 30.9828 16.5462ZM28.5978 13.5252L28.61 12.6813H33.1476V13.5252H28.5978ZM37.1212 16.5462C36.6728 16.5462 36.2814 16.481 35.9471 16.3505C35.6128 16.2119 35.3315 16.0325 35.1032 15.8123C34.883 15.5922 34.7241 15.3517 34.6262 15.0907L35.4823 14.7361C35.621 15.0133 35.8289 15.2375 36.1061 15.4087C36.3833 15.58 36.6891 15.6656 37.0234 15.6656C37.4066 15.6656 37.7287 15.5922 37.9896 15.4454C38.2505 15.2905 38.381 15.0744 38.381 14.7972C38.381 14.5444 38.2831 14.3406 38.0874 14.1857C37.8999 14.0308 37.6186 13.9044 37.2435 13.8065L36.6565 13.6475C36.102 13.5008 35.6699 13.2806 35.36 12.9871C35.0502 12.6854 34.8953 12.347 34.8953 11.972C34.8953 11.393 35.0828 10.9446 35.4579 10.6266C35.8411 10.3005 36.4078 10.1374 37.1579 10.1374C37.5167 10.1374 37.8428 10.1904 38.1364 10.2964C38.4299 10.4024 38.6827 10.5532 38.8947 10.7489C39.1067 10.9364 39.2616 11.1607 39.3594 11.4216L38.5033 11.8007C38.3973 11.5235 38.222 11.3237 37.9774 11.2014C37.7328 11.0791 37.4352 11.018 37.0845 11.018C36.7095 11.018 36.4159 11.0995 36.2039 11.2626C35.992 11.4175 35.886 11.6377 35.886 11.923C35.886 12.0861 35.9716 12.241 36.1428 12.3878C36.3222 12.5264 36.5831 12.6406 36.9255 12.7303L37.5371 12.8893C37.9366 12.9871 38.2709 13.1339 38.54 13.3295C38.8091 13.5171 39.0129 13.7332 39.1515 13.9778C39.2901 14.2224 39.3594 14.4833 39.3594 14.7605C39.3594 15.1274 39.2616 15.4454 39.0659 15.7145C38.8702 15.9836 38.6052 16.1915 38.2709 16.3383C37.9366 16.4769 37.5534 16.5462 37.1212 16.5462Z" fill="#323338"/>
</g>
<defs>
<clipPath id="clip0_126_32660">
<rect width="20" height="20" fill="white" transform="translate(20.3087 2.39941)"/>
</clipPath>
</defs>
</svg>
